<svg width="499" height="498" viewBox="0 0 499 498" fill="none" xmlns="http://www.w3.org/2000/svg">
<path d="M478.897 383.091L212.769 239.269C209.033 237.277 206.011 231.839 206.011 227.188V34.4915C206.011 29.8302 209.033 27.6888 212.769 29.7107L478.897 173.533C482.632 175.525 485.655 180.963 485.655 185.615V378.311C485.697 382.972 482.675 385.113 478.897 383.091Z" fill="#B1B4C4"/>
<path d="M480.312 385.083L483.26 383.49L481.983 375.313L480.312 385.083Z" fill="#B1B4C4"/>
<path d="M205.532 30.876L208.437 29.3023L212.609 31.5334C212.609 31.5334 208.16 32.1608 208.054 32.1409C207.948 32.121 205.532 30.876 205.532 30.876Z" fill="#B1B4C4"/>
<path d="M476.502 384.456L210.332 240.594C206.596 238.602 203.563 233.164 203.563 228.502V35.856C203.563 31.1947 206.596 29.0533 210.332 31.0752L476.502 174.898C480.238 176.89 483.26 182.328 483.26 186.989V379.635C483.26 384.287 480.238 386.448 476.502 384.456Z" fill="#E4E7F2"/>
<path d="M476.034 384.665L209.863 240.843C206.128 238.851 203.095 233.413 203.095 228.751V36.0552C203.095 31.4039 206.128 29.2625 209.863 31.2744L476.034 175.097C479.759 177.089 482.792 182.527 482.792 187.188V379.884C482.792 384.546 479.759 386.687 476.034 384.665Z" fill="#D6D8E5"/>
<path d="M479.131 372.942L206.458 225.624L206.617 36.852C206.617 34.9198 208.065 34.1329 209.81 35.099L475.981 178.921C476.915 179.501 477.691 180.278 478.246 181.19C478.8 182.101 479.118 183.122 479.174 184.17L479.131 372.942Z" fill="white"/>
<path opacity="0.5" d="M479.046 372.952L206.458 225.634L206.543 36.852C206.543 34.9198 207.99 34.1329 209.736 35.099L475.906 178.921C476.84 179.502 477.616 180.279 478.17 181.19C478.725 182.102 479.043 183.123 479.099 184.17L479.046 372.952Z" fill="url(#paint0_linear_449815_1077)"/>
<path opacity="0.4" d="M275.281 496.635L9.10966 352.813C5.37426 350.821 5.84252 347.275 10.1739 344.945L188.483 248.592C192.74 246.271 199.317 246.012 203.042 248.034L469.223 391.856C472.948 393.848 472.48 397.394 468.159 399.725L289.839 496.078C285.529 498.398 279.005 498.657 275.281 496.635Z" fill="#D6D8E5"/>
<path d="M281.091 493.369L14.899 349.596C11.1636 347.604 11.6318 344.058 15.9632 341.728L194.272 245.385C198.529 243.054 205.106 242.795 208.842 244.817L475.013 388.639C478.748 390.631 478.28 394.177 473.948 396.508L295.66 492.811C291.35 495.132 284.827 495.391 281.091 493.369Z" fill="#B1B4C4"/>
<path d="M12.3981 346.299V341.598L18.0384 343.809L12.3981 346.299Z" fill="#B1B4C4"/>
<path d="M477.535 392.105V387.514L473.363 388.858L476.13 392.663L477.535 392.105Z" fill="#B1B4C4"/>
<path d="M281.091 489.414L14.899 345.612C11.1636 343.62 11.6318 340.074 15.9632 337.744L194.272 241.391C198.529 239.06 205.106 238.811 208.842 240.833L475.013 384.655C478.748 386.647 478.28 390.193 473.948 392.524L295.66 488.847C291.35 491.177 284.827 491.436 281.091 489.414Z" fill="#E4E7F2"/>
<path d="M281.091 488.807L14.899 344.985C11.1636 342.993 11.6318 339.437 15.9632 337.116L194.272 240.763C198.529 238.432 205.106 238.183 208.842 240.195L475.013 384.028C478.748 386.02 478.28 389.565 473.948 391.896L295.66 488.239C291.35 490.57 284.827 490.819 281.091 488.807Z" fill="#D6D8E5"/>
<path d="M189.335 273.263L176.947 266.569C175.883 266.022 176.064 265.065 177.224 264.438L189.058 258.044C189.656 257.732 190.324 257.556 191.008 257.53C191.692 257.504 192.372 257.629 192.995 257.894L205.394 264.587C206.405 265.135 206.277 266.091 205.106 266.719L193.283 273.113C192.683 273.425 192.013 273.601 191.328 273.627C190.642 273.652 189.959 273.528 189.335 273.263Z" fill="#2B303F"/>
<path d="M206.883 282.744L194.485 276.041C193.474 275.504 193.602 274.547 194.773 273.91L206.596 267.526C207.196 267.214 207.866 267.038 208.551 267.012C209.237 266.986 209.919 267.111 210.544 267.376L222.932 274.069C223.996 274.617 223.815 275.573 222.655 276.201L210.821 282.585C210.225 282.9 209.557 283.079 208.873 283.107C208.188 283.135 207.507 283.01 206.883 282.744Z" fill="#2B303F"/>
<path d="M224.624 292.336L212.236 285.633C211.172 285.085 211.353 284.129 212.513 283.501L224.347 277.117C224.944 276.802 225.611 276.623 226.296 276.595C226.98 276.567 227.662 276.692 228.285 276.958L240.683 283.661C241.747 284.199 241.566 285.155 240.396 285.792L228.572 292.177C227.972 292.487 227.303 292.663 226.618 292.69C225.933 292.718 225.251 292.597 224.624 292.336Z" fill="#2B303F"/>
<path d="M241.971 301.698L229.572 295.005C228.561 294.457 228.689 293.501 229.86 292.874L241.683 286.479C242.283 286.168 242.953 285.992 243.638 285.966C244.324 285.94 245.007 286.065 245.631 286.33L258.03 293.023C259.041 293.571 258.913 294.527 257.742 295.155L245.919 301.549C245.319 301.861 244.649 302.036 243.964 302.062C243.278 302.088 242.595 301.964 241.971 301.698Z" fill="#2B303F"/>
<path d="M259.52 311.18L247.121 304.487C246.057 303.939 246.238 302.983 247.409 302.356L259.232 295.961C259.832 295.65 260.502 295.474 261.187 295.448C261.873 295.422 262.556 295.547 263.18 295.812L275.568 302.505C276.579 303.053 276.451 304.009 275.281 304.637L263.457 311.031C262.859 311.342 262.191 311.518 261.507 311.544C260.823 311.57 260.143 311.445 259.52 311.18Z" fill="#2B303F"/>
<path d="M277.058 320.712L264.67 314.019C263.659 313.471 263.776 312.515 264.947 311.887L276.77 305.493C277.37 305.181 278.04 305.006 278.726 304.98C279.411 304.954 280.094 305.078 280.719 305.344L293.117 312.037C294.128 312.585 294 313.541 292.829 314.168L281.006 320.563C280.406 320.874 279.736 321.05 279.051 321.076C278.365 321.102 277.683 320.977 277.058 320.712Z" fill="#2B303F"/>
<path d="M294.607 330.144L282.209 323.451C281.198 322.903 281.325 321.947 282.496 321.32L294.319 314.925C294.919 314.614 295.589 314.438 296.275 314.412C296.96 314.386 297.643 314.511 298.268 314.776L310.655 321.469C311.666 322.017 311.538 322.973 310.378 323.6L298.544 329.985C297.948 330.3 297.28 330.479 296.596 330.507C295.912 330.534 295.23 330.41 294.607 330.144Z" fill="#2B303F"/>
<path d="M312.145 339.636L299.758 332.933C298.747 332.385 298.874 331.439 300.034 330.801L311.868 324.417C312.465 324.102 313.132 323.923 313.817 323.895C314.501 323.868 315.183 323.992 315.806 324.258L328.204 330.961C329.268 331.509 329.087 332.455 327.917 333.092L316.072 339.467C315.477 339.78 314.812 339.959 314.13 339.989C313.448 340.018 312.768 339.897 312.145 339.636Z" fill="#2B303F"/>
<path d="M329.694 349.098L317.296 342.405C316.285 341.857 316.413 340.901 317.583 340.273L329.407 333.889C330.005 333.574 330.674 333.395 331.36 333.367C332.046 333.339 332.73 333.464 333.355 333.73L345.742 340.433C346.753 340.971 346.626 341.927 345.466 342.564L333.642 348.949C333.042 349.26 332.373 349.436 331.687 349.462C331.001 349.488 330.319 349.363 329.694 349.098Z" fill="#2B303F"/>
<path d="M347.232 358.56L334.845 351.867C333.834 351.319 333.961 350.363 335.121 349.735L346.934 343.361C347.532 343.05 348.2 342.874 348.884 342.848C349.568 342.822 350.249 342.946 350.872 343.212L363.27 349.905C364.281 350.453 364.153 351.409 362.983 352.036L351.191 358.431C350.588 358.741 349.916 358.914 349.228 358.936C348.54 358.959 347.857 358.83 347.232 358.56Z" fill="#2B303F"/>
<path d="M364.781 368.062L352.383 361.369C351.372 360.821 351.5 359.865 352.67 359.237L364.494 352.843C365.094 352.531 365.763 352.356 366.449 352.33C367.135 352.304 367.817 352.428 368.442 352.694L380.84 359.387C381.851 359.934 381.723 360.891 380.553 361.518L368.729 367.912C368.129 368.224 367.46 368.4 366.774 368.426C366.089 368.452 365.406 368.327 364.781 368.062Z" fill="#2B303F"/>
<path d="M382.33 377.544L369.932 370.851C368.921 370.303 369.049 369.347 370.219 368.719L382.053 362.325C382.653 362.013 383.323 361.837 384.008 361.811C384.694 361.786 385.377 361.91 386.001 362.175L398.389 368.869C399.453 369.416 399.272 370.373 398.102 371L386.31 377.394C385.707 377.712 385.031 377.892 384.339 377.918C383.647 377.944 382.959 377.816 382.33 377.544Z" fill="#2B303F"/>
<path d="M399.868 387.026L387.481 380.323C386.417 379.775 386.587 378.829 387.757 378.191L399.581 371.807C400.18 371.494 400.849 371.316 401.535 371.288C402.22 371.261 402.903 371.384 403.529 371.647L415.927 378.351C416.938 378.898 416.811 379.845 415.64 380.482L403.816 386.866C403.218 387.182 402.549 387.361 401.863 387.388C401.177 387.416 400.493 387.292 399.868 387.026Z" fill="#2B303F"/>
<path d="M425.867 401.069L405.019 389.804C404.008 389.257 404.136 388.301 405.306 387.673L417.172 381.289C417.771 380.973 418.44 380.794 419.126 380.767C419.812 380.739 420.495 380.863 421.121 381.129L441.915 392.424C442.926 392.972 442.799 393.928 441.639 394.555L429.805 400.95C429.204 401.257 428.535 401.427 427.851 401.448C427.167 401.469 426.488 401.339 425.867 401.069Z" fill="#2B303F"/>
<path d="M198.359 296.509L185.961 289.836C184.897 289.288 185.078 288.332 186.248 287.705L198.072 281.31C198.672 280.999 199.341 280.823 200.027 280.797C200.713 280.771 201.395 280.896 202.02 281.161L214.407 287.844C215.418 288.392 215.291 289.348 214.131 289.975L202.297 296.37C201.698 296.68 201.03 296.854 200.346 296.878C199.662 296.902 198.981 296.776 198.359 296.509Z" fill="#2B303F"/>
<path d="M215.929 306.011L203.542 299.318C202.531 298.77 202.659 297.814 203.819 297.186L215.653 290.832C216.251 290.52 216.919 290.345 217.602 290.319C218.286 290.293 218.967 290.417 219.59 290.683L231.999 297.336C233.01 297.884 232.882 298.84 231.712 299.467L219.888 305.862C219.287 306.175 218.615 306.352 217.928 306.377C217.24 306.403 216.556 306.278 215.929 306.011Z" fill="#2B303F"/>
<path d="M233.51 315.503L221.112 308.81C220.048 308.262 220.229 307.306 221.399 306.678L233.223 300.284C233.823 299.972 234.492 299.797 235.178 299.771C235.864 299.745 236.546 299.869 237.171 300.135L249.558 306.828C250.569 307.376 250.442 308.332 249.282 308.959L237.448 315.354C236.85 315.665 236.182 315.841 235.498 315.867C234.814 315.893 234.133 315.768 233.51 315.503Z" fill="#2B303F"/>
<path d="M251.08 325.005L238.682 318.302C237.671 317.764 237.799 316.808 238.97 316.17L250.793 309.756C251.392 309.443 252.061 309.265 252.747 309.238C253.432 309.21 254.115 309.333 254.741 309.597L267.118 316.33C268.129 316.877 268.001 317.824 266.831 318.461L255.007 324.845C254.412 325.158 253.746 325.335 253.064 325.362C252.382 325.39 251.703 325.268 251.08 325.005Z" fill="#2B303F"/>
<path d="M268.512 334.427L256.125 327.684C255.114 327.136 255.241 326.19 256.401 325.553L268.235 319.168C268.832 318.853 269.5 318.674 270.184 318.646C270.868 318.619 271.55 318.743 272.173 319.009L284.571 325.712C285.635 326.25 285.454 327.206 284.284 327.843L272.439 334.268C271.843 334.578 271.177 334.753 270.496 334.781C269.814 334.809 269.135 334.687 268.512 334.427Z" fill="#2B303F"/>
<path d="M286.093 343.919L273.695 337.226C272.684 336.678 272.812 335.722 273.982 335.094L285.806 328.68C286.406 328.368 287.075 328.193 287.761 328.167C288.446 328.141 289.129 328.265 289.754 328.531L302.141 335.224C303.152 335.772 303.025 336.728 301.865 337.355L290.031 343.75C289.434 344.064 288.767 344.243 288.083 344.273C287.399 344.302 286.718 344.181 286.093 343.919Z" fill="#2B303F"/>
<path d="M303.663 353.411L291.265 346.718C290.254 346.17 290.382 345.214 291.552 344.586L303.376 338.202C303.974 337.886 304.644 337.707 305.33 337.68C306.016 337.652 306.699 337.776 307.324 338.042L319.722 344.745C320.733 345.283 320.606 346.239 319.435 346.877L307.611 353.261C307.011 353.573 306.342 353.749 305.656 353.775C304.971 353.801 304.288 353.676 303.663 353.411Z" fill="#2B303F"/>
<path d="M321.233 362.912L308.846 356.219C307.835 355.672 307.963 354.715 309.133 354.088L320.957 347.694C321.555 347.382 322.223 347.206 322.906 347.18C323.59 347.154 324.271 347.279 324.894 347.544L337.292 354.237C338.303 354.785 338.176 355.741 337.005 356.369L325.182 362.763C324.582 363.075 323.912 363.251 323.226 363.276C322.541 363.302 321.858 363.178 321.233 362.912Z" fill="#2B303F"/>
<path d="M338.814 372.404L326.416 365.711C325.352 365.163 325.533 364.207 326.704 363.58L338.527 357.186C339.127 356.874 339.797 356.698 340.482 356.672C341.168 356.646 341.85 356.771 342.475 357.036L354.863 363.729C355.874 364.277 355.757 365.233 354.586 365.861L342.763 372.255C342.163 372.567 341.493 372.742 340.807 372.768C340.122 372.794 339.439 372.67 338.814 372.404Z" fill="#2B303F"/>
<path d="M356.384 381.906L343.997 375.203C342.986 374.665 343.114 373.709 344.274 373.072L356.108 366.687C356.706 366.376 357.373 366.2 358.056 366.173C358.74 366.145 359.421 366.267 360.045 366.528L372.475 373.231C373.486 373.779 373.359 374.735 372.188 375.362L360.365 381.747C359.762 382.067 359.087 382.249 358.395 382.276C357.703 382.304 357.014 382.177 356.384 381.906Z" fill="#2B303F"/>
<path d="M373.965 391.428L361.567 384.735C360.556 384.187 360.684 383.231 361.855 382.603L373.678 376.209C374.278 375.897 374.948 375.722 375.633 375.696C376.319 375.67 377.001 375.794 377.626 376.06L390.014 382.753C391.025 383.301 390.897 384.257 389.737 384.884L377.903 391.279C377.305 391.59 376.637 391.766 375.953 391.792C375.269 391.818 374.588 391.693 373.965 391.428Z" fill="#2B303F"/>
<path d="M391.536 400.9L379.148 394.197C378.137 393.649 378.254 392.703 379.425 392.065L391.248 385.681C391.847 385.368 392.517 385.19 393.202 385.163C393.888 385.135 394.571 385.258 395.196 385.522L407.595 392.225C408.606 392.773 408.478 393.719 407.307 394.356L395.484 400.741C394.886 401.056 394.216 401.235 393.53 401.263C392.844 401.29 392.161 401.166 391.536 400.9Z" fill="#2B303F"/>
<path d="M180.778 287.017L159.941 275.753C158.93 275.205 159.058 274.259 160.218 273.621L172.052 267.237C172.648 266.921 173.316 266.743 174 266.715C174.684 266.687 175.366 266.811 175.989 267.077L196.88 278.342C197.891 278.89 197.763 279.846 196.592 280.474L184.726 286.848C184.128 287.163 183.459 287.342 182.774 287.371C182.088 287.401 181.405 287.28 180.778 287.017Z" fill="#2B303F"/>
<path d="M425.016 401.677L412.628 394.984C412.058 394.711 411.427 394.569 410.787 394.569C410.147 394.569 409.516 394.711 408.946 394.984L396.452 401.737C395.388 402.284 395.388 403.171 396.452 403.729L397.442 404.266C398.378 404.764 398.368 405.591 397.442 406.099L384.182 413.23C383.117 413.788 383.117 414.675 384.182 415.222L392.068 419.485C392.636 419.756 393.265 419.897 393.903 419.897C394.541 419.897 395.17 419.756 395.739 419.485L408.105 412.812L410.659 411.428L412.5 410.432L414.352 409.436L424.994 403.689C426.027 403.111 426.027 402.225 425.016 401.677Z" fill="#2B303F"/>
<path d="M121.384 310.055L108.997 303.362C107.933 302.814 108.114 301.858 109.274 301.23L121.108 294.816C121.706 294.504 122.374 294.329 123.057 294.303C123.741 294.277 124.422 294.401 125.045 294.667L137.443 301.36C138.454 301.907 138.327 302.864 137.156 303.491L125.333 309.885C124.734 310.2 124.066 310.379 123.38 310.409C122.694 310.438 122.011 310.317 121.384 310.055Z" fill="#2B303F"/>
<path d="M138.88 319.507L126.493 312.814C125.428 312.266 125.609 311.31 126.769 310.682L138.603 304.288C139.201 303.976 139.869 303.801 140.553 303.775C141.237 303.749 141.918 303.873 142.541 304.139L154.939 310.832C155.95 311.379 155.822 312.336 154.652 312.963L142.828 319.357C142.228 319.669 141.559 319.845 140.873 319.871C140.188 319.897 139.505 319.772 138.88 319.507Z" fill="#2B303F"/>
<path d="M156.376 328.959L143.988 322.266C142.924 321.718 143.094 320.762 144.265 320.134L156.088 313.74C156.688 313.428 157.358 313.253 158.044 313.227C158.729 313.201 159.412 313.325 160.037 313.591L172.403 320.284C173.414 320.832 173.286 321.788 172.116 322.415L160.292 328.809C159.696 329.116 159.032 329.289 158.353 329.315C157.673 329.341 156.996 329.219 156.376 328.959Z" fill="#2B303F"/>
<path d="M305.366 409.466L292.968 402.762C291.904 402.225 292.085 401.268 293.255 400.631L305.079 394.247C305.678 393.933 306.347 393.756 307.033 393.728C307.718 393.701 308.401 393.824 309.027 394.087L321.393 400.79C322.457 401.338 322.276 402.284 321.106 402.922L309.304 409.356C308.703 409.663 308.033 409.834 307.349 409.853C306.664 409.872 305.985 409.739 305.366 409.466Z" fill="#2B303F"/>
<path d="M322.851 418.918L310.464 412.224C309.399 411.677 309.58 410.72 310.74 410.093L322.574 403.699C323.172 403.387 323.84 403.211 324.524 403.185C325.208 403.159 325.889 403.284 326.512 403.549L338.91 410.242C339.974 410.79 339.793 411.746 338.623 412.374L326.799 418.768C326.199 419.08 325.53 419.256 324.844 419.282C324.158 419.307 323.476 419.183 322.851 418.918Z" fill="#2B303F"/>
<path d="M340.347 428.37L327.959 421.676C326.948 421.129 327.076 420.173 328.236 419.545L340.07 413.151C340.668 412.839 341.336 412.663 342.02 412.637C342.704 412.612 343.385 412.736 344.008 413.001L356.406 419.694C357.47 420.242 357.289 421.198 356.118 421.826L344.295 428.22C343.695 428.532 343.025 428.708 342.34 428.734C341.654 428.76 340.972 428.635 340.347 428.37Z" fill="#2B303F"/>
<path d="M357.842 437.822L345.455 431.129C344.444 430.581 344.572 429.625 345.732 428.997L357.576 422.603C358.174 422.291 358.842 422.115 359.526 422.09C360.21 422.064 360.891 422.188 361.514 422.453L373.912 429.146C374.976 429.694 374.795 430.65 373.625 431.278L361.833 437.672C361.228 437.99 360.551 438.17 359.857 438.196C359.163 438.222 358.473 438.093 357.842 437.822Z" fill="#2B303F"/>
<path d="M178.373 340.851L161.473 331.718C160.462 331.17 160.59 330.214 161.761 329.586L173.584 323.192C174.184 322.88 174.854 322.705 175.539 322.679C176.225 322.653 176.907 322.777 177.532 323.043L194.432 332.176C195.496 332.724 195.315 333.67 194.145 334.307L182.321 340.692C181.723 341.007 181.054 341.186 180.368 341.214C179.682 341.241 178.998 341.117 178.373 340.851Z" fill="#2B303F"/>
<path d="M287.87 400.013L270.971 390.88C269.906 390.332 270.087 389.376 271.247 388.749L283.081 382.354C283.679 382.043 284.347 381.867 285.031 381.841C285.715 381.815 286.396 381.94 287.019 382.205L303.919 391.338C304.93 391.886 304.802 392.832 303.642 393.47L291.808 399.854C291.211 400.169 290.544 400.348 289.859 400.376C289.175 400.404 288.493 400.279 287.87 400.013Z" fill="#2B303F"/>
<path d="M265.862 388.121L183.481 343.62C182.47 343.072 182.598 342.116 183.758 341.489L195.592 335.094C196.19 334.783 196.858 334.607 197.542 334.581C198.226 334.555 198.907 334.68 199.53 334.945L281.921 379.476C282.932 380.024 282.805 380.98 281.634 381.607L269.811 388.002C269.208 388.309 268.537 388.479 267.852 388.5C267.166 388.521 266.485 388.391 265.862 388.121Z" fill="#2B303F"/>
<path d="M186.121 308.282L173.733 301.589C172.722 301.041 172.85 300.085 174.02 299.457L185.844 293.063C186.442 292.752 187.11 292.576 187.794 292.55C188.478 292.524 189.158 292.648 189.781 292.914L202.201 299.607C203.265 300.155 203.084 301.111 201.914 301.738L190.09 308.132C189.487 308.447 188.814 308.625 188.124 308.651C187.435 308.677 186.748 308.55 186.121 308.282Z" fill="#2B303F"/>
<path d="M203.648 317.724L191.261 311.021C190.25 310.473 190.377 309.527 191.537 308.889L203.371 302.505C203.969 302.192 204.636 302.015 205.32 301.987C206.004 301.959 206.685 302.082 207.309 302.346L219.707 309.049C220.771 309.597 220.59 310.543 219.42 311.18L207.596 317.565C206.998 317.88 206.329 318.059 205.643 318.087C204.957 318.114 204.273 317.99 203.648 317.724Z" fill="#2B303F"/>
<path d="M221.176 327.216L208.778 320.523C207.714 319.975 207.894 319.019 209.065 318.391L220.889 311.997C221.489 311.685 222.158 311.51 222.844 311.484C223.529 311.458 224.212 311.582 224.837 311.848L237.224 318.541C238.288 319.089 238.118 320.045 236.948 320.672L225.124 327.066C224.524 327.378 223.855 327.554 223.169 327.58C222.483 327.606 221.801 327.481 221.176 327.216Z" fill="#2B303F"/>
<path d="M238.703 336.648L226.305 329.955C225.241 329.407 225.422 328.451 226.593 327.823L238.384 321.469C238.984 321.157 239.654 320.982 240.339 320.956C241.025 320.93 241.708 321.054 242.332 321.32L254.72 328.013C255.784 328.56 255.603 329.517 254.443 330.144L242.641 336.538C242.04 336.844 241.37 337.013 240.686 337.032C240.002 337.051 239.323 336.919 238.703 336.648Z" fill="#2B303F"/>
<path d="M256.221 346.16L243.833 339.467C242.769 338.919 242.95 337.963 244.11 337.335L255.944 330.941C256.542 330.629 257.21 330.454 257.894 330.428C258.578 330.402 259.258 330.526 259.881 330.791L272.28 337.485C273.344 338.032 273.163 338.989 271.992 339.616L260.169 346.01C259.569 346.322 258.899 346.498 258.214 346.524C257.528 346.55 256.845 346.425 256.221 346.16Z" fill="#2B303F"/>
<path d="M273.748 355.632L261.361 348.929C260.296 348.381 260.467 347.435 261.637 346.797L273.503 340.413C274.102 340.097 274.771 339.919 275.457 339.891C276.143 339.863 276.827 339.987 277.452 340.254L289.85 346.957C290.861 347.504 290.733 348.451 289.562 349.088L277.739 355.472C277.135 355.794 276.458 355.977 275.764 356.005C275.07 356.032 274.379 355.904 273.748 355.632Z" fill="#2B303F"/>
<path d="M291.276 365.094L278.878 358.401C277.867 357.853 277.994 356.897 279.165 356.269L290.988 349.875C291.588 349.563 292.258 349.387 292.944 349.361C293.629 349.336 294.312 349.46 294.937 349.725L307.324 356.419C308.388 356.966 308.207 357.923 307.047 358.55L295.213 364.944C294.615 365.256 293.947 365.432 293.264 365.458C292.58 365.484 291.899 365.359 291.276 365.094Z" fill="#2B303F"/>
<path d="M308.803 374.566L296.405 367.873C295.394 367.325 295.522 366.369 296.693 365.741L308.516 359.347C309.116 359.035 309.786 358.859 310.471 358.833C311.157 358.808 311.839 358.932 312.464 359.197L324.852 365.891C325.863 366.438 325.735 367.395 324.564 368.022L312.741 374.416C312.143 374.728 311.475 374.904 310.791 374.93C310.107 374.955 309.426 374.831 308.803 374.566Z" fill="#2B303F"/>
<path d="M326.32 384.038L313.944 377.345C312.933 376.797 313.06 375.841 314.22 375.213L326.054 368.819C326.652 368.507 327.32 368.331 328.004 368.306C328.688 368.28 329.369 368.404 329.992 368.669L342.39 375.362C343.401 375.91 343.273 376.866 342.103 377.494L330.279 383.888C329.678 384.201 329.006 384.378 328.319 384.404C327.631 384.43 326.947 384.305 326.32 384.038Z" fill="#2B303F"/>
<path d="M343.848 393.51L331.45 386.807C330.439 386.259 330.567 385.313 331.737 384.675L343.561 378.291C344.159 377.975 344.828 377.796 345.514 377.769C346.2 377.741 346.884 377.865 347.509 378.131L359.907 384.834C360.918 385.372 360.79 386.328 359.62 386.966L347.796 393.35C347.197 393.663 346.528 393.841 345.842 393.869C345.157 393.896 344.474 393.773 343.848 393.51Z" fill="#2B303F"/>
<path d="M361.376 402.972L348.977 396.279C347.966 395.731 348.094 394.775 349.265 394.147L361.088 387.753C361.688 387.441 362.358 387.265 363.043 387.239C363.729 387.213 364.412 387.338 365.036 387.603L377.424 394.296C378.488 394.844 378.307 395.8 377.147 396.428L365.313 402.822C364.715 403.134 364.047 403.31 363.363 403.335C362.679 403.361 361.999 403.237 361.376 402.972Z" fill="#2B303F"/>
<path d="M378.861 412.444L366.473 405.75C365.462 405.203 365.59 404.246 366.761 403.619L378.584 397.225C379.182 396.913 379.85 396.737 380.534 396.711C381.218 396.685 381.899 396.81 382.522 397.075L394.92 403.768C395.931 404.316 395.803 405.272 394.632 405.9L382.841 412.344C382.233 412.653 381.555 412.822 380.863 412.84C380.172 412.857 379.486 412.721 378.861 412.444Z" fill="#2B303F"/>
<path d="M168.604 298.8L142.967 284.956C141.903 284.408 142.083 283.452 143.254 282.824L155.078 276.43C155.677 276.118 156.347 275.942 157.033 275.916C157.718 275.891 158.401 276.015 159.026 276.28L184.652 290.125C185.716 290.673 185.535 291.629 184.375 292.256L172.541 298.651C171.943 298.962 171.275 299.138 170.591 299.164C169.908 299.19 169.227 299.065 168.604 298.8Z" fill="#2B303F"/>
<path d="M160.42 312.744L148.032 306.071C147.021 305.523 147.138 304.577 148.309 303.939L160.132 297.555C160.731 297.24 161.4 297.061 162.086 297.033C162.772 297.005 163.456 297.13 164.081 297.396L176.479 304.099C177.49 304.637 177.362 305.593 176.191 306.23L164.368 312.615C163.766 312.923 163.096 313.095 162.41 313.118C161.725 313.14 161.043 313.012 160.42 312.744Z" fill="#2B303F"/>
<path d="M177.947 322.236L165.549 315.543C164.538 314.995 164.666 314.039 165.837 313.411L177.66 307.017C178.26 306.705 178.93 306.53 179.615 306.504C180.301 306.478 180.983 306.602 181.608 306.868L193.996 313.561C195.06 314.109 194.879 315.065 193.719 315.692L181.885 322.086C181.287 322.398 180.619 322.574 179.935 322.6C179.251 322.626 178.57 322.501 177.947 322.236Z" fill="#2B303F"/>
<path d="M195.464 331.668L183.045 325.005C181.981 324.457 182.162 323.511 183.332 322.873L195.156 316.489C195.755 316.176 196.424 315.998 197.11 315.971C197.795 315.943 198.478 316.066 199.104 316.33L211.502 323.033C212.566 323.58 212.385 324.527 211.215 325.164L199.391 331.548C198.792 331.854 198.125 332.025 197.443 332.045C196.761 332.066 196.083 331.937 195.464 331.668Z" fill="#2B303F"/>
<path d="M212.981 341.17L200.594 334.477C199.53 333.929 199.711 332.973 200.881 332.345L212.705 325.951C213.303 325.639 213.971 325.464 214.655 325.438C215.338 325.412 216.019 325.536 216.642 325.802L229.04 332.495C230.051 333.042 229.924 333.999 228.753 334.626L216.93 341.02C216.33 341.332 215.66 341.508 214.974 341.534C214.289 341.56 213.606 341.435 212.981 341.17Z" fill="#2B303F"/>
<path d="M230.509 350.642L218.164 343.949C217.153 343.401 217.281 342.445 218.451 341.817L230.275 335.423C230.875 335.111 231.544 334.936 232.23 334.91C232.916 334.884 233.598 335.008 234.223 335.274L246.611 341.967C247.622 342.514 247.505 343.471 246.334 344.098L234.51 350.482C233.906 350.806 233.227 350.989 232.53 351.017C231.834 351.045 231.141 350.916 230.509 350.642Z" fill="#2B303F"/>
<path d="M248.026 360.104L235.639 353.411C234.628 352.863 234.755 351.907 235.915 351.279L247.749 344.885C248.347 344.573 249.015 344.398 249.699 344.372C250.383 344.346 251.064 344.47 251.687 344.735L264.085 351.429C265.096 351.976 264.968 352.933 263.798 353.56L251.974 359.954C251.374 360.266 250.705 360.442 250.019 360.468C249.333 360.494 248.651 360.369 248.026 360.104Z" fill="#2B303F"/>
<path d="M265.554 369.576L253.156 362.883C252.145 362.335 252.272 361.379 253.443 360.751L265.266 354.357C265.866 354.045 266.536 353.869 267.222 353.843C267.907 353.818 268.59 353.942 269.215 354.207L281.602 360.901C282.613 361.448 282.485 362.405 281.325 363.032L269.502 369.426C268.902 369.738 268.232 369.914 267.547 369.94C266.861 369.966 266.179 369.841 265.554 369.576Z" fill="#2B303F"/>
<path d="M283.081 379.048L270.694 372.345C269.683 371.797 269.811 370.851 270.971 370.213L282.805 363.829C283.401 363.513 284.069 363.335 284.753 363.307C285.437 363.279 286.119 363.403 286.742 363.669L299.14 370.373C300.151 370.91 300.024 371.867 298.853 372.504L287.03 378.888C286.43 379.202 285.761 379.379 285.076 379.407C284.39 379.434 283.707 379.311 283.081 379.048Z" fill="#2B303F"/>
<path d="M300.598 388.51L288.2 381.817C287.189 381.269 287.317 380.313 288.487 379.685L300.311 373.291C300.911 372.979 301.58 372.803 302.266 372.777C302.952 372.752 303.634 372.876 304.259 373.141L316.647 379.835C317.658 380.382 317.53 381.339 316.37 381.966L304.536 388.36C303.938 388.672 303.27 388.848 302.586 388.874C301.902 388.899 301.221 388.775 300.598 388.51Z" fill="#2B303F"/>
<path d="M318.115 397.982L305.728 391.279C304.717 390.741 304.844 389.785 306.004 389.147L317.839 382.763C318.436 382.45 319.103 382.272 319.787 382.244C320.471 382.217 321.152 382.34 321.776 382.603L334.164 389.307C335.175 389.854 335.047 390.801 333.876 391.438L322.053 397.822C321.456 398.136 320.788 398.314 320.104 398.342C319.42 398.369 318.739 398.246 318.115 397.982Z" fill="#2B303F"/>
<path d="M335.643 407.444L323.245 400.751C322.234 400.203 322.362 399.247 323.532 398.619L335.356 392.225C335.956 391.913 336.625 391.737 337.311 391.711C337.996 391.685 338.679 391.81 339.304 392.075L351.691 398.769C352.702 399.316 352.575 400.272 351.415 400.9L339.581 407.294C338.982 407.606 338.315 407.782 337.631 407.808C336.947 407.833 336.266 407.709 335.643 407.444Z" fill="#2B303F"/>
<path d="M374.849 428.639L340.794 410.223C339.783 409.675 339.9 408.719 341.07 408.091L352.894 401.697C353.494 401.385 354.163 401.209 354.849 401.183C355.535 401.157 356.217 401.282 356.842 401.547L390.897 419.963C391.908 420.501 391.78 421.457 390.61 422.095L378.786 428.479C378.188 428.791 377.521 428.967 376.838 428.995C376.154 429.023 375.473 428.901 374.849 428.639Z" fill="#2B303F"/>
<path d="M142.903 303.302L126.003 294.169C124.939 293.621 125.12 292.665 126.28 292.037L138.114 285.653C138.71 285.337 139.378 285.159 140.062 285.131C140.747 285.103 141.428 285.227 142.051 285.493L158.951 294.627C159.962 295.175 159.835 296.131 158.675 296.758L146.862 303.152C146.261 303.467 145.589 303.645 144.901 303.671C144.213 303.697 143.529 303.57 142.903 303.302Z" fill="#2B303F"/>
<path d="M443.469 391.557L194.613 257.097C193.549 256.56 193.73 255.603 194.9 254.966L200.817 251.779C201.415 251.466 202.082 251.288 202.766 251.261C203.45 251.233 204.131 251.356 204.755 251.619L453.611 386.079C454.622 386.627 454.494 387.573 453.324 388.211L447.417 391.428C446.816 391.736 446.145 391.909 445.46 391.931C444.774 391.954 444.092 391.826 443.469 391.557Z" fill="#2B303F"/>
<path d="M289.307 406.846C288.952 407.571 288.344 408.161 287.583 408.519L219.111 445.521C217.959 446.12 216.672 446.459 215.354 446.509C214.036 446.559 212.724 446.32 211.523 445.81L94.4597 382.574C93.9594 382.33 93.5563 381.943 93.3104 381.468C92.8847 380.472 93.4806 379.366 95.0344 378.53L163.517 341.518C164.669 340.919 165.956 340.58 167.274 340.53C168.592 340.48 169.904 340.72 171.105 341.23L288.168 404.466C288.641 404.658 289.021 405.008 289.231 405.449C289.442 405.889 289.469 406.388 289.307 406.846Z" fill="#B1B4C4"/>
<path d="M289.307 406.846C288.952 407.571 288.344 408.161 287.583 408.519L219.111 445.521C217.959 446.12 216.672 446.459 215.354 446.509C214.036 446.559 212.724 446.32 211.523 445.81L94.4598 382.574C93.9595 382.33 93.5564 381.943 93.3104 381.468C93.6732 380.751 94.2794 380.166 95.0345 379.805L163.517 342.803C164.669 342.203 165.955 341.863 167.273 341.811C168.59 341.759 169.903 341.997 171.105 342.504L288.168 405.75C288.665 405.99 289.065 406.375 289.307 406.846Z" fill="#C3C6D1"/>
<path d="M462.412 381.358L213.556 246.898C213.008 246.519 212.562 246.025 212.254 245.457C211.945 244.888 211.783 244.26 211.779 243.622V240.883C211.779 239.618 212.598 239.04 213.609 239.588L462.465 374.048C463.023 374.42 463.479 374.909 463.797 375.477C464.115 376.044 464.286 376.674 464.296 377.315V380.054C464.243 381.329 463.423 381.906 462.412 381.358Z" fill="#2B303F"/>
<path d="M251.155 233.622L226.571 220.365C223.496 218.702 220.995 214.23 220.995 210.405V185.734C220.995 181.89 223.496 180.127 226.571 181.75L251.155 195.047C254.241 196.71 256.731 201.182 256.731 205.007V229.678C256.689 233.522 254.199 235.285 251.155 233.622Z" fill="#E9EAF2"/>
<path d="M251.059 177.119L226.518 163.862C223.443 162.199 220.942 155.396 220.942 152.069V123.265C220.942 119.42 223.443 117.657 226.518 119.281L251.059 132.538C254.145 134.201 256.636 138.673 256.636 142.498V171.302C256.636 174.688 254.145 178.782 251.059 177.119Z" fill="#E9EAF2"/>
<path d="M251.027 116.193L226.486 102.937C223.411 101.263 220.91 93.7734 220.91 90.4368V63.9233C220.91 60.5966 223.411 59.2421 226.486 60.9353L251.027 74.202C252.651 75.1905 254.002 76.524 254.971 78.0938C255.94 79.6636 256.5 81.4254 256.604 83.2357V109.759C256.604 113.056 254.113 117.857 251.027 116.193Z" fill="#E9EAF2"/>
<path d="M424.76 269.916L276.185 189.628C273.674 188.284 271.652 184.648 271.652 181.531V88.0763C271.652 84.9588 273.674 83.5246 276.185 84.8791L424.76 165.157C427.261 166.511 429.283 170.137 429.283 173.264V266.709C429.283 269.836 427.261 271.271 424.76 269.916Z" fill="#E9EAF2"/>
<path d="M407.595 201.979L292.436 139.759C289.648 138.245 287.381 134.201 287.381 130.725V123.683C287.381 120.197 289.648 118.604 292.436 120.108L407.595 182.328C410.383 183.832 412.639 187.875 412.639 191.361V198.403C412.639 201.889 410.383 203.483 407.595 201.979Z" fill="white"/>
<path d="M344.965 199.798L292.436 171.412C289.648 169.908 287.381 165.864 287.381 162.378V155.376C287.381 151.89 289.648 150.296 292.436 151.8L344.965 180.186C347.754 181.69 350.01 185.734 350.01 189.22V196.212C350.01 199.698 347.754 201.302 344.965 199.798Z" fill="#EB6D07"/>
<path d="M455.335 290.473C455.335 290.473 399.326 302.027 354.043 254.956C308.761 207.885 271.822 213.921 271.822 213.921V243.303L455.335 342.455V290.473Z" fill="url(#paint1_linear_449815_1077)"/>
<path d="M455.335 290.473C455.335 290.473 399.326 302.027 354.043 254.956C308.761 207.885 271.822 213.921 271.822 213.921" stroke="#CCCEDD" stroke-width="1.06" stroke-miterlimit="10"/>
<path d="M271.577 44.2224C269.94 46.963 267.949 49.5052 265.65 51.792C265.011 52.4892 260.084 50.7263 261.116 50.2283C262.148 49.7303 265.373 45.5272 266.99 42.7184C268.344 39.3652 269.495 35.9436 270.439 32.4696C271.45 29.0334 272.322 23.9936 273.067 21.6232C273.258 20.7476 273.715 19.9423 274.383 19.3043C275.051 18.6663 275.903 18.2229 276.834 18.0276C278.612 17.6392 279.761 18.0973 279.431 20.1092C278.825 23.6152 275.919 37.3002 271.577 44.2224Z" fill="#DEA77D"/>
<path d="M274.397 97.857C272.876 99.0223 270.619 97.9566 270.502 98.0662C268.709 99.6213 266.83 101.087 264.873 102.459C263.915 103.156 262.436 104.092 262.744 105.447C263.223 107.847 267.342 107.11 268.895 106.373C270.449 105.636 271.726 104.381 273.152 103.564C274.216 102.947 275.281 102.638 275.398 101.393C275.493 100.646 274.674 97.8271 274.397 97.857Z" fill="#001825"/>
<path d="M275.376 100.895C275.174 102.08 274.153 102.409 273.11 103.016C271.62 103.883 270.3 105.138 268.746 105.875C267.193 106.612 263.734 107.229 262.723 105.506C263.266 107.827 267.32 107.1 268.853 106.373C270.385 105.646 271.684 104.381 273.11 103.564C274.174 102.947 275.238 102.638 275.355 101.393C275.377 101.228 275.384 101.061 275.376 100.895Z" fill="black"/>
<path d="M258.902 89.5006C257.381 90.6659 254.709 89.401 254.592 89.5006C253.007 91.0114 251.326 92.4316 249.559 93.7535C248.601 94.4606 247.122 95.3969 247.43 96.7415C247.909 99.1518 252.028 98.4148 253.592 97.6777C255.156 96.9407 256.412 95.6857 257.849 94.859C258.913 94.2515 259.977 93.9328 260.094 92.6977C260.179 91.9507 259.179 89.4707 258.902 89.5006Z" fill="#001825"/>
<path d="M260.041 92.369C259.839 93.5543 258.817 93.883 257.774 94.4905C256.284 95.3571 254.965 96.612 253.411 97.349C251.857 98.0861 248.388 98.7036 247.388 96.9805C247.93 99.3012 251.974 98.5741 253.517 97.847C255.061 97.12 256.338 95.8551 257.774 95.0284C258.839 94.4208 259.903 94.112 260.02 92.867C260.041 92.7019 260.048 92.5353 260.041 92.369Z" fill="black"/>
<path d="M294.788 52.031C296.48 61.9313 291.787 65.6264 285.678 67.728C281.293 69.2419 275.036 71.5726 275.036 71.5726C275.036 71.5726 275.121 73.7438 275.164 78.6143C275.164 82.907 274.61 98.5343 274.61 98.5343C273.886 98.8829 273.083 99.0648 272.269 99.0648C271.455 99.0648 270.652 98.8829 269.928 98.5343C269.928 98.5343 267.469 86.5325 266.948 81.1142C266.235 73.7737 265.032 68.963 265.437 67.3794C265.788 65.985 274.365 62.0408 277.09 59.9293L259.115 65.5667C259.473 67.39 259.648 69.2407 259.637 71.0945C259.477 76.9211 259.126 89.5404 259.126 89.5404C259.126 89.5404 256.668 91.2037 254.56 89.5404C254.56 89.5404 250.037 64.5707 250.591 61.264C251.112 58.1266 266.948 51.7123 269.747 49.5012C270.233 49.1313 270.797 48.8612 271.402 48.7085C272.007 48.5558 272.64 48.5239 273.259 48.6148L294.788 52.031Z" fill="#EB6D07"/>
<path d="M251.73 56.1545L263.808 49.6307C263.913 49.5718 264.032 49.5407 264.154 49.5407C264.276 49.5407 264.396 49.5718 264.5 49.6307L285.678 61.0747L273.259 67.7878L251.73 56.1545Z" fill="#F4F4F4"/>
<path d="M273.823 65.3874L274.749 65.8854C274.823 65.8854 274.812 65.995 274.749 66.0448L273.865 66.5228C273.82 66.5424 273.771 66.5526 273.722 66.5526C273.672 66.5526 273.623 66.5424 273.578 66.5228L272.652 66.0248C272.578 66.0248 272.588 65.9153 272.652 65.8655L273.535 65.3874C273.58 65.3678 273.629 65.3577 273.679 65.3577C273.729 65.3577 273.778 65.3678 273.823 65.3874Z" fill="#532E11"/>
<path d="M272.524 64.74L273.44 65.228C273.514 65.228 273.503 65.3476 273.44 65.3874L272.567 65.8655C272.521 65.8874 272.47 65.8988 272.418 65.8988C272.366 65.8988 272.315 65.8874 272.269 65.8655L271.354 65.3675C271.279 65.3675 271.29 65.2579 271.354 65.2081L272.226 64.74C272.272 64.7155 272.323 64.7026 272.375 64.7026C272.428 64.7026 272.479 64.7155 272.524 64.74Z" fill="#532E11"/>
<path d="M271.205 63.9731L272.12 64.4711C272.194 64.4711 272.194 64.5806 272.12 64.6304L271.247 65.0986C271.201 65.1204 271.15 65.1318 271.098 65.1318C271.047 65.1318 270.996 65.1204 270.949 65.0986L270.034 64.6006C269.96 64.6006 269.97 64.491 270.034 64.4412L270.907 63.9631C270.954 63.9428 271.005 63.9331 271.057 63.9348C271.109 63.9365 271.159 63.9497 271.205 63.9731Z" fill="#532E11"/>
<path d="M269.917 63.2759L270.832 63.7739C270.907 63.7739 270.907 63.8834 270.832 63.9332L269.96 64.4113C269.913 64.4311 269.862 64.4414 269.811 64.4414C269.759 64.4414 269.708 64.4311 269.662 64.4113L268.746 63.9133C268.672 63.9133 268.683 63.8038 268.746 63.754L269.619 63.2759C269.666 63.2561 269.717 63.2458 269.768 63.2458C269.819 63.2458 269.87 63.2561 269.917 63.2759Z" fill="#532E11"/>
<path d="M268.608 62.5687L269.534 63.0667C269.608 63.0667 269.598 63.1862 269.534 63.2261L268.651 63.7042C268.606 63.726 268.557 63.7374 268.507 63.7374C268.457 63.7374 268.408 63.726 268.363 63.7042L267.437 63.2062C267.363 63.2062 267.374 63.0966 267.437 63.0468L268.321 62.5787C268.364 62.5553 268.413 62.5422 268.463 62.5405C268.513 62.5387 268.563 62.5484 268.608 62.5687Z" fill="#532E11"/>
<path d="M267.31 61.8715L268.236 62.3695C268.31 62.3695 268.299 62.4791 268.236 62.5289L267.352 62.997C267.308 63.0188 267.259 63.0302 267.209 63.0302C267.159 63.0302 267.109 63.0188 267.065 62.997L266.139 62.499C266.065 62.499 266.075 62.3894 266.139 62.3496L267.022 61.8715C267.067 61.8497 267.116 61.8383 267.166 61.8383C267.216 61.8383 267.265 61.8497 267.31 61.8715Z" fill="#532E11"/>
<path d="M266.054 61.1644L266.969 61.6624C267.044 61.6624 267.033 61.7719 266.969 61.8217L266.096 62.2998C266.05 62.3196 265.999 62.3298 265.947 62.3298C265.896 62.3298 265.845 62.3196 265.799 62.2998L264.883 61.8018C264.809 61.8018 264.809 61.6922 264.883 61.6424L265.756 61.1644C265.803 61.1446 265.854 61.1343 265.905 61.1343C265.956 61.1343 266.007 61.1446 266.054 61.1644Z" fill="#532E11"/>
<path d="M264.702 60.4572L265.628 60.9552C265.703 60.9552 265.692 61.0747 265.628 61.1146L264.745 61.5926C264.701 61.6145 264.651 61.6259 264.601 61.6259C264.551 61.6259 264.502 61.6145 264.458 61.5926L263.532 61.0946C263.457 61.0946 263.468 60.9851 263.532 60.9353L264.415 60.4672C264.458 60.4438 264.507 60.4307 264.557 60.429C264.607 60.4272 264.657 60.4369 264.702 60.4572Z" fill="#532E11"/>
<path d="M263.404 59.76L264.319 60.258C264.394 60.258 264.383 60.3676 264.319 60.4174L263.447 60.8855C263.4 60.9074 263.349 60.9188 263.298 60.9188C263.246 60.9188 263.195 60.9074 263.149 60.8855L262.233 60.3875C262.159 60.3875 262.17 60.2779 262.233 60.2381L263.106 59.76C263.152 59.7381 263.203 59.7267 263.255 59.7267C263.307 59.7267 263.358 59.7381 263.404 59.76Z" fill="#532E11"/>
<path d="M262.095 59.0528L263.021 59.5508C263.095 59.5508 263.085 59.6604 263.021 59.7102L262.138 60.1883C262.093 60.2079 262.044 60.218 261.994 60.218C261.944 60.218 261.895 60.2079 261.85 60.1883L260.924 59.6903C260.85 59.6903 260.861 59.5807 260.924 59.5309L261.808 59.0528C261.852 59.031 261.901 59.0196 261.951 59.0196C262.001 59.0196 262.051 59.031 262.095 59.0528Z" fill="#532E11"/>
<path d="M260.797 58.3457L261.712 58.8437C261.786 58.8437 261.786 58.9532 261.712 59.003L260.839 59.4811C260.793 59.503 260.742 59.5144 260.69 59.5144C260.638 59.5144 260.587 59.503 260.541 59.4811L259.626 58.9831C259.552 58.9831 259.562 58.8736 259.626 58.8238L260.499 58.3556C260.544 58.3322 260.595 58.3191 260.646 58.3174C260.698 58.3156 260.75 58.3253 260.797 58.3457Z" fill="#532E11"/>
<path d="M259.498 57.6485L260.414 58.1465C260.488 58.1465 260.477 58.256 260.414 58.3058L259.53 58.774C259.486 58.7958 259.437 58.8072 259.387 58.8072C259.337 58.8072 259.287 58.7958 259.243 58.774L258.317 58.276C258.243 58.276 258.253 58.1664 258.317 58.1166L259.2 57.6485C259.247 57.6266 259.298 57.6152 259.349 57.6152C259.401 57.6152 259.452 57.6266 259.498 57.6485Z" fill="#532E11"/>
<path d="M258.189 56.9413L259.115 57.4393C259.19 57.4393 259.179 57.5489 259.115 57.5987L258.232 58.0668C258.188 58.0886 258.138 58.1 258.088 58.1C258.038 58.1 257.989 58.0886 257.945 58.0668L257.019 57.5688C256.944 57.5688 256.955 57.4493 257.019 57.4094L257.902 56.9314C257.947 56.9111 257.997 56.9014 258.047 56.9031C258.097 56.9048 258.146 56.918 258.189 56.9413Z" fill="#532E11"/>
<path d="M256.263 55.8955L257.806 56.7322C257.881 56.7322 257.87 56.8417 257.806 56.8915L256.934 57.3696C256.887 57.3894 256.836 57.3996 256.785 57.3996C256.733 57.3996 256.682 57.3894 256.636 57.3696L255.092 56.533C255.018 56.533 255.018 56.4234 255.092 56.3736L255.965 55.8955C256.012 55.8757 256.063 55.8655 256.114 55.8655C256.166 55.8655 256.216 55.8757 256.263 55.8955Z" fill="#532E11"/>
<path d="M273.152 63.6643L274.078 64.1623C274.153 64.1623 274.142 64.2719 274.078 64.3217L273.195 64.7898C273.152 64.8144 273.102 64.8274 273.051 64.8274C273.001 64.8274 272.951 64.8144 272.908 64.7898L271.982 64.3018C271.907 64.3018 271.918 64.1822 271.982 64.1424L272.865 63.6643C272.909 63.6425 272.959 63.6311 273.009 63.6311C273.059 63.6311 273.108 63.6425 273.152 63.6643Z" fill="#532E11"/>
<path d="M271.854 62.9572L272.769 63.4552C272.844 63.4552 272.833 63.5647 272.769 63.6145L271.897 64.0926C271.85 64.1124 271.799 64.1227 271.748 64.1227C271.696 64.1227 271.645 64.1124 271.599 64.0926L270.683 63.5946C270.609 63.5946 270.609 63.485 270.683 63.4352L271.556 62.9572C271.602 62.9353 271.653 62.9239 271.705 62.9239C271.757 62.9239 271.808 62.9353 271.854 62.9572Z" fill="#532E11"/>
<path d="M270.545 62.25L271.46 62.748C271.545 62.748 271.535 62.8576 271.46 62.9074L270.587 63.3854C270.541 63.4052 270.49 63.4155 270.438 63.4155C270.387 63.4155 270.336 63.4052 270.289 63.3854L269.374 62.8874C269.3 62.8874 269.31 62.7779 269.374 62.7281L270.247 62.25C270.294 62.2302 270.345 62.22 270.396 62.22C270.447 62.22 270.498 62.2302 270.545 62.25Z" fill="#532E11"/>
<path d="M269.247 61.5428L270.172 62.0408C270.247 62.0408 270.236 62.1604 270.172 62.2002L269.289 62.6783C269.245 62.7001 269.195 62.7115 269.145 62.7115C269.095 62.7115 269.046 62.7001 269.002 62.6783L268.076 62.1803C268.001 62.1803 268.012 62.0707 268.076 62.0209L268.959 61.5528C269.003 61.5294 269.051 61.5163 269.102 61.5146C269.152 61.5129 269.201 61.5225 269.247 61.5428Z" fill="#532E11"/>
<path d="M267.948 60.8456L268.863 61.3436C268.938 61.3436 268.927 61.4532 268.863 61.503L267.991 61.9811C267.944 62.0009 267.893 62.0111 267.842 62.0111C267.79 62.0111 267.74 62.0009 267.693 61.9811L266.778 61.4831C266.703 61.4831 266.703 61.3735 266.778 61.3237L267.65 60.8456C267.697 60.8258 267.748 60.8156 267.799 60.8156C267.851 60.8156 267.901 60.8258 267.948 60.8456Z" fill="#532E11"/>
<path d="M266.639 60.1385L267.565 60.6365C267.64 60.6365 267.629 60.756 267.565 60.7958L266.682 61.2739C266.637 61.2957 266.588 61.3071 266.538 61.3071C266.488 61.3071 266.439 61.2957 266.394 61.2739L265.469 60.7759C265.394 60.7759 265.405 60.6664 265.469 60.6166L266.352 60.1484C266.395 60.1251 266.444 60.112 266.494 60.1102C266.544 60.1085 266.594 60.1182 266.639 60.1385Z" fill="#532E11"/>
<path d="M265.33 59.4413L266.256 59.9393C266.331 59.9393 266.32 60.0488 266.256 60.0887L265.373 60.5668C265.329 60.5886 265.279 60.6 265.229 60.6C265.179 60.6 265.13 60.5886 265.085 60.5668L264.16 60.0688C264.085 60.0688 264.096 59.9592 264.16 59.9094L265.043 59.4413C265.087 59.4195 265.137 59.4081 265.187 59.4081C265.237 59.4081 265.286 59.4195 265.33 59.4413Z" fill="#532E11"/>
<path d="M264.032 58.764L264.947 59.262C265.022 59.262 265.011 59.3716 264.947 59.4214L264.074 59.8895C264.028 59.9114 263.977 59.9228 263.926 59.9228C263.874 59.9228 263.823 59.9114 263.777 59.8895L262.861 59.3915C262.787 59.3915 262.797 59.2819 262.861 59.2421L263.734 58.764C263.78 58.7421 263.831 58.7307 263.883 58.7307C263.935 58.7307 263.986 58.7421 264.032 58.764Z" fill="#532E11"/>
<path d="M262.723 58.027L263.649 58.525C263.723 58.525 263.713 58.6345 263.649 58.6843L262.766 59.1524C262.721 59.1743 262.672 59.1856 262.622 59.1856C262.572 59.1856 262.522 59.1743 262.478 59.1524L261.552 58.6544C261.478 58.6544 261.488 58.5349 261.552 58.4951L262.436 58.017C262.481 57.9967 262.531 57.987 262.581 57.9888C262.631 57.9905 262.679 58.0036 262.723 58.027Z" fill="#532E11"/>
<path d="M261.425 57.3198L262.34 57.8178C262.414 57.8178 262.404 57.9274 262.34 57.9772L261.457 58.4552C261.412 58.4748 261.363 58.485 261.313 58.485C261.263 58.485 261.214 58.4748 261.169 58.4552L260.243 57.9572C260.169 57.9572 260.18 57.8477 260.243 57.7979L261.127 57.3198C261.173 57.3 261.224 57.2898 261.276 57.2898C261.327 57.2898 261.378 57.3 261.425 57.3198Z" fill="#532E11"/>
<path d="M260.116 56.6126L261.031 57.1106C261.105 57.1106 261.105 57.2202 261.031 57.27L260.158 57.7481C260.112 57.77 260.061 57.7814 260.009 57.7814C259.957 57.7814 259.906 57.77 259.86 57.7481L258.945 57.2501C258.871 57.2501 258.881 57.1405 258.945 57.0907L259.818 56.6126C259.864 56.5928 259.915 56.5826 259.967 56.5826C260.018 56.5826 260.069 56.5928 260.116 56.6126Z" fill="#532E11"/>
<path d="M258.807 55.9154L259.732 56.4035C259.807 56.4035 259.796 56.523 259.732 56.5628L258.849 57.0409C258.805 57.0627 258.756 57.0741 258.705 57.0741C258.655 57.0741 258.606 57.0627 258.562 57.0409L257.636 56.5429C257.561 56.5429 257.572 56.4334 257.636 56.3836L258.519 55.9154C258.563 55.8908 258.612 55.8778 258.663 55.8778C258.714 55.8778 258.763 55.8908 258.807 55.9154Z" fill="#532E11"/>
<path d="M274.461 64.3715L276.004 65.2081C276.079 65.2081 276.079 65.3177 276.004 65.3675L275.132 65.8356C275.086 65.8575 275.034 65.8689 274.983 65.8689C274.931 65.8689 274.88 65.8575 274.834 65.8356L273.291 64.999C273.216 64.999 273.227 64.8894 273.291 64.8396L274.163 64.3715C274.209 64.3496 274.261 64.3382 274.312 64.3382C274.364 64.3382 274.415 64.3496 274.461 64.3715Z" fill="#532E11"/>
<path d="M256.327 55.8557L257.242 56.3537C257.285 56.3731 257.333 56.3832 257.381 56.3832C257.428 56.3832 257.476 56.3731 257.519 56.3537L258.445 55.8457C258.461 55.8401 258.475 55.8299 258.485 55.8165C258.495 55.8032 258.5 55.7873 258.5 55.771C258.5 55.7548 258.495 55.7389 258.485 55.7255C258.475 55.7122 258.461 55.702 258.445 55.6963H258.37C258.306 55.6963 258.306 55.6067 258.37 55.5668L259.349 55.039C259.434 55.039 259.434 54.9294 259.349 54.8896L258.764 54.5708C258.721 54.5514 258.674 54.5413 258.626 54.5413C258.578 54.5413 258.53 54.5514 258.487 54.5708L257.572 55.0688L257.381 55.1684L257.242 55.2481L257.104 55.3178L256.316 55.7461C256.303 55.7622 256.296 55.7825 256.298 55.8029C256.3 55.8233 256.31 55.8422 256.327 55.8557Z" fill="#532E11"/>
<path d="M278.825 62.6584L279.75 63.1564C279.825 63.1564 279.814 63.2659 279.75 63.3157L278.867 63.7838C278.824 63.8085 278.774 63.8215 278.723 63.8215C278.673 63.8215 278.623 63.8085 278.58 63.7838L277.654 63.2958C277.579 63.246 277.59 63.1763 277.654 63.1364L278.537 62.6584C278.582 62.6366 278.631 62.6252 278.681 62.6252C278.731 62.6252 278.78 62.6366 278.825 62.6584Z" fill="#532E11"/>
<path d="M277.569 61.9512L278.495 62.4492C278.569 62.4492 278.559 62.5687 278.495 62.6086L277.611 63.0867C277.567 63.1085 277.518 63.1199 277.468 63.1199C277.418 63.1199 277.368 63.1085 277.324 63.0867L276.398 62.5887C276.324 62.5887 276.334 62.4791 276.398 62.4293L277.281 61.9612C277.325 61.9378 277.374 61.9247 277.424 61.923C277.474 61.9212 277.524 61.9309 277.569 61.9512Z" fill="#532E11"/>
<path d="M276.27 61.254L277.196 61.752C277.271 61.752 277.26 61.8616 277.196 61.9114L276.313 62.3795C276.269 62.4013 276.219 62.4127 276.169 62.4127C276.119 62.4127 276.07 62.4013 276.026 62.3795L275.1 61.8815C275.025 61.8815 275.036 61.762 275.1 61.7221L275.983 61.244C276.028 61.2238 276.078 61.2141 276.128 61.2158C276.178 61.2175 276.227 61.2306 276.27 61.254Z" fill="#532E11"/>
<path d="M265.213 55.278L266.128 55.776C266.203 55.776 266.192 55.8856 266.128 55.9354L265.256 56.4035C265.21 56.4254 265.159 56.4368 265.107 56.4368C265.055 56.4368 265.004 56.4254 264.958 56.4035L264.043 55.9055C263.957 55.9055 263.968 55.7959 264.043 55.7461L264.915 55.278C264.961 55.2561 265.012 55.2447 265.064 55.2447C265.116 55.2447 265.167 55.2561 265.213 55.278Z" fill="#532E11"/>
<path d="M263.925 54.5708L264.851 55.0688C264.926 55.0688 264.915 55.1784 264.851 55.2282L263.968 55.7063C263.923 55.7259 263.874 55.736 263.824 55.736C263.775 55.736 263.726 55.7259 263.681 55.7063L262.755 55.2083C262.68 55.2083 262.691 55.0987 262.755 55.0489L263.638 54.5708C263.683 54.5512 263.732 54.5411 263.782 54.5411C263.831 54.5411 263.88 54.5512 263.925 54.5708Z" fill="#532E11"/>
<path d="M262.606 53.8736L263.532 54.3716C263.606 54.3716 263.596 54.4812 263.532 54.531L262.648 54.9991C262.604 55.0209 262.555 55.0323 262.505 55.0323C262.455 55.0323 262.405 55.0209 262.361 54.9991L261.435 54.5011C261.361 54.5011 261.371 54.3916 261.435 54.3517L262.319 53.8736C262.363 53.8518 262.412 53.8404 262.462 53.8404C262.512 53.8404 262.562 53.8518 262.606 53.8736Z" fill="#532E11"/>
<path d="M261.308 53.1665L262.233 53.6645C262.308 53.6645 262.297 53.774 262.233 53.8238L261.35 54.3019C261.305 54.3215 261.256 54.3317 261.206 54.3317C261.157 54.3317 261.108 54.3215 261.063 54.3019L260.137 53.8039C260.062 53.8039 260.073 53.6944 260.137 53.6446L261.02 53.1665C261.065 53.1469 261.114 53.1367 261.164 53.1367C261.214 53.1367 261.263 53.1469 261.308 53.1665Z" fill="#532E11"/>
<path d="M274.642 60.3676L275.898 61.0449C275.972 61.0449 275.962 61.1644 275.898 61.2042L275.015 61.6823C274.97 61.7041 274.921 61.7155 274.871 61.7155C274.821 61.7155 274.772 61.7041 274.727 61.6823L273.503 61.015C273.429 61.015 273.429 60.9054 273.503 60.8556L274.376 60.3775C274.46 60.3427 274.555 60.3391 274.642 60.3676Z" fill="#532E11"/>
<path d="M266.512 55.9752L267.767 56.6525C267.842 56.6525 267.831 56.762 267.767 56.8118L266.884 57.2899C266.839 57.3095 266.79 57.3197 266.74 57.3197C266.691 57.3197 266.642 57.3095 266.597 57.2899L265.341 56.6126C265.266 56.6126 265.266 56.5031 265.341 56.4533L266.214 55.9752C266.26 55.9554 266.311 55.9452 266.363 55.9452C266.414 55.9452 266.465 55.9554 266.512 55.9752Z" fill="#532E11"/>
<path d="M268.182 56.8616L274.302 60.1684C274.376 60.1684 274.365 60.2779 274.302 60.3277L273.429 60.7958C273.383 60.8177 273.332 60.8291 273.28 60.8291C273.228 60.8291 273.177 60.8177 273.131 60.7958L267.012 57.4891C266.937 57.4891 266.948 57.3796 267.012 57.3397L267.895 56.8616C267.939 56.8398 267.989 56.8284 268.039 56.8284C268.089 56.8284 268.138 56.8398 268.182 56.8616Z" fill="#532E11"/>
<path d="M274.067 62.748L274.983 63.246C275.057 63.246 275.047 63.3556 274.983 63.4054L274.11 63.8834C274.063 63.9032 274.012 63.9135 273.961 63.9135C273.91 63.9135 273.859 63.9032 273.812 63.8834L272.897 63.3854C272.822 63.3854 272.822 63.2759 272.897 63.2261L273.769 62.748C273.816 62.7282 273.867 62.718 273.918 62.718C273.97 62.718 274.021 62.7282 274.067 62.748Z" fill="#532E11"/>
<path d="M272.758 62.0807L273.684 62.5787C273.759 62.5787 273.748 62.6982 273.684 62.738L272.801 63.2161C272.757 63.2379 272.707 63.2493 272.657 63.2493C272.607 63.2493 272.558 63.2379 272.514 63.2161L271.588 62.7181C271.513 62.7181 271.524 62.6086 271.588 62.5588L272.471 62.0906C272.515 62.0673 272.563 62.0542 272.613 62.0524C272.664 62.0507 272.713 62.0604 272.758 62.0807Z" fill="#532E11"/>
<path d="M271.46 61.3835L272.386 61.8815C272.46 61.8815 272.45 61.991 272.386 62.0408L271.503 62.509C271.457 62.5308 271.405 62.5422 271.354 62.5422C271.302 62.5422 271.251 62.5308 271.205 62.509L270.29 62.011C270.215 61.9612 270.226 61.8914 270.29 61.8516L271.173 61.3735C271.218 61.3532 271.268 61.3435 271.318 61.3453C271.368 61.347 271.417 61.3601 271.46 61.3835Z" fill="#532E11"/>
<path d="M270.162 60.6763L271.077 61.1743C271.152 61.1743 271.141 61.2839 271.077 61.3337L270.204 61.8118C270.158 61.8316 270.107 61.8418 270.055 61.8418C270.004 61.8418 269.953 61.8316 269.906 61.8118L268.991 61.3138C268.917 61.3138 268.927 61.2042 268.991 61.1544L269.864 60.6763C269.911 60.6565 269.961 60.6463 270.013 60.6463C270.064 60.6463 270.115 60.6565 270.162 60.6763Z" fill="#532E11"/>
<path d="M268.853 59.9791L269.779 60.4771C269.853 60.4771 269.843 60.5867 269.779 60.6365L268.895 61.1046C268.851 61.1264 268.802 61.1378 268.752 61.1378C268.702 61.1378 268.652 61.1264 268.608 61.1046L267.682 60.6066C267.608 60.6066 267.618 60.497 267.682 60.4472L268.566 59.9791C268.61 59.9573 268.659 59.9459 268.709 59.9459C268.759 59.9459 268.809 59.9573 268.853 59.9791Z" fill="#532E11"/>
<path d="M267.555 59.272L268.48 59.77C268.555 59.77 268.544 59.8795 268.48 59.9293L267.597 60.4074C267.552 60.427 267.503 60.4372 267.453 60.4372C267.404 60.4372 267.355 60.427 267.31 60.4074L266.384 59.9094C266.309 59.9094 266.32 59.7999 266.384 59.7501L267.267 59.272C267.312 59.2524 267.361 59.2422 267.411 59.2422C267.46 59.2422 267.51 59.2524 267.555 59.272Z" fill="#532E11"/>
<path d="M266.256 58.5648L267.171 59.0628C267.246 59.0628 267.246 59.1823 267.171 59.2222L266.299 59.7002C266.252 59.7221 266.201 59.7335 266.15 59.7335C266.098 59.7335 266.047 59.7221 266.001 59.7002L265.085 59.2022C265.011 59.2022 265.022 59.0927 265.085 59.0429L265.958 58.5748C266.003 58.5513 266.054 58.5382 266.106 58.5365C266.158 58.5347 266.209 58.5444 266.256 58.5648Z" fill="#532E11"/>
<path d="M264.99 57.8676L265.905 58.3656C265.979 58.3656 265.969 58.4752 265.905 58.525L265.032 58.9931C264.987 59.0176 264.936 59.0304 264.883 59.0304C264.831 59.0304 264.78 59.0176 264.734 58.9931L263.819 58.505C263.745 58.505 263.745 58.3855 263.819 58.3457L264.692 57.8676C264.738 57.8457 264.789 57.8343 264.841 57.8343C264.892 57.8343 264.944 57.8457 264.99 57.8676Z" fill="#532E11"/>
<path d="M263.649 57.1604L264.575 57.6584C264.649 57.6584 264.639 57.768 264.575 57.8178L263.691 58.2959C263.646 58.3155 263.597 58.3256 263.548 58.3256C263.498 58.3256 263.449 58.3155 263.404 58.2959L262.478 57.7979C262.404 57.7979 262.414 57.6883 262.478 57.6385L263.362 57.1604C263.407 57.1408 263.456 57.1307 263.505 57.1307C263.555 57.1307 263.604 57.1408 263.649 57.1604Z" fill="#532E11"/>
<path d="M262.35 56.4632L263.266 56.9612C263.351 56.9612 263.34 57.0708 263.266 57.1106L262.382 57.5887C262.336 57.6106 262.285 57.622 262.233 57.622C262.182 57.622 262.131 57.6106 262.084 57.5887L261.169 57.0907C261.095 57.0907 261.105 56.9812 261.169 56.9314L262.042 56.4632C262.089 56.4397 262.142 56.4274 262.196 56.4274C262.25 56.4274 262.303 56.4397 262.35 56.4632Z" fill="#532E11"/>
<path d="M261.052 55.776L261.967 56.274C262.042 56.274 262.031 56.3836 261.967 56.4334L261.095 56.9114C261.048 56.9312 260.997 56.9415 260.946 56.9415C260.894 56.9415 260.844 56.9312 260.797 56.9114L259.882 56.4134C259.807 56.4134 259.818 56.3039 259.882 56.2541L260.733 55.776C260.782 55.7507 260.837 55.7374 260.893 55.7374C260.948 55.7374 261.003 55.7507 261.052 55.776Z" fill="#532E11"/>
<path d="M259.743 55.0489L260.669 55.5469C260.743 55.5469 260.733 55.6664 260.669 55.7063L259.786 56.1844C259.741 56.2062 259.692 56.2176 259.642 56.2176C259.592 56.2176 259.543 56.2062 259.498 56.1844L258.572 55.6864C258.498 55.6864 258.509 55.5768 258.572 55.527L259.456 55.0589C259.499 55.0355 259.548 55.0224 259.598 55.0207C259.648 55.0189 259.698 55.0286 259.743 55.0489Z" fill="#532E11"/>
<path d="M275.366 63.495L277.271 64.491C277.345 64.491 277.335 64.6006 277.271 64.6504L276.387 65.1284C276.342 65.148 276.293 65.1582 276.244 65.1582C276.194 65.1582 276.145 65.148 276.1 65.1284L274.195 64.1324C274.121 64.1324 274.131 64.0229 274.195 63.9731L275.068 63.505C275.113 63.4815 275.164 63.4684 275.216 63.4667C275.267 63.4649 275.319 63.4746 275.366 63.495Z" fill="#532E11"/>
<path d="M275.972 62.4592L276.888 62.9572C276.973 62.9572 276.962 63.0667 276.888 63.1066L276.015 63.5846C275.969 63.6065 275.918 63.6179 275.866 63.6179C275.814 63.6179 275.763 63.6065 275.717 63.5846L274.802 63.0866C274.727 63.0866 274.738 62.9771 274.802 62.9273L275.674 62.4592C275.721 62.4373 275.772 62.4259 275.823 62.4259C275.875 62.4259 275.926 62.4373 275.972 62.4592Z" fill="#532E11"/>
<path d="M274.674 61.752L275.589 62.25C275.664 62.25 275.653 62.3596 275.589 62.4094L274.717 62.8874C274.67 62.9072 274.619 62.9175 274.568 62.9175C274.516 62.9175 274.465 62.9072 274.419 62.8874L273.503 62.3894C273.429 62.3894 273.44 62.2799 273.503 62.2301L274.376 61.752C274.422 61.7301 274.473 61.7187 274.525 61.7187C274.577 61.7187 274.628 61.7301 274.674 61.752Z" fill="#532E11"/>
<path d="M273.365 61.0448L274.291 61.5428C274.365 61.5428 274.355 61.6624 274.291 61.7022L273.408 62.1803C273.363 62.2021 273.314 62.2135 273.264 62.2135C273.214 62.2135 273.165 62.2021 273.12 62.1803L272.195 61.6823C272.12 61.6823 272.131 61.5727 272.195 61.5229L273.078 61.0548C273.121 61.0314 273.17 61.0183 273.22 61.0166C273.27 61.0149 273.32 61.0245 273.365 61.0448Z" fill="#532E11"/>
<path d="M272.067 60.3476L272.993 60.8456C273.067 60.8456 273.056 60.9552 272.993 61.005L272.109 61.4731C272.066 61.4977 272.016 61.5108 271.966 61.5108C271.915 61.5108 271.865 61.4977 271.822 61.4731L270.896 60.9851C270.822 60.9353 270.832 60.8656 270.896 60.8257L271.779 60.3476C271.824 60.3258 271.873 60.3144 271.923 60.3144C271.973 60.3144 272.022 60.3258 272.067 60.3476Z" fill="#532E11"/>
<path d="M270.768 59.6405L271.684 60.1385C271.758 60.1385 271.758 60.248 271.684 60.2978L270.811 60.7759C270.764 60.7957 270.713 60.806 270.662 60.806C270.611 60.806 270.56 60.7957 270.513 60.7759L269.598 60.2779C269.523 60.2779 269.534 60.1684 269.598 60.1186L270.47 59.6405C270.517 59.6207 270.568 59.6104 270.619 59.6104C270.671 59.6104 270.722 59.6207 270.768 59.6405Z" fill="#532E11"/>
<path d="M269.47 58.9433L270.385 59.4413C270.46 59.4413 270.449 59.5508 270.385 59.5907L269.513 60.0688C269.466 60.0906 269.415 60.102 269.364 60.102C269.312 60.102 269.261 60.0906 269.215 60.0688L268.299 59.5708C268.225 59.5708 268.225 59.4612 268.299 59.4114L269.172 58.9433C269.218 58.9214 269.269 58.91 269.321 58.91C269.373 58.91 269.424 58.9214 269.47 58.9433Z" fill="#532E11"/>
<path d="M268.182 58.2361L269.108 58.7341C269.183 58.7341 269.172 58.8437 269.108 58.8935L268.225 59.3716C268.18 59.3912 268.131 59.4013 268.081 59.4013C268.032 59.4013 267.983 59.3912 267.938 59.3716L267.012 58.8736C266.937 58.8736 266.948 58.764 267.012 58.7142L267.895 58.2361C267.94 58.2165 267.989 58.2064 268.039 58.2064C268.088 58.2064 268.137 58.2165 268.182 58.2361Z" fill="#532E11"/>
<path d="M266.863 57.529L267.789 58.027C267.863 58.027 267.852 58.1465 267.789 58.1863L266.905 58.6644C266.861 58.6862 266.812 58.6976 266.762 58.6976C266.712 58.6976 266.662 58.6862 266.618 58.6644L265.692 58.1664C265.618 58.1664 265.628 58.0568 265.692 58.007L266.575 57.5389C266.619 57.5156 266.668 57.5025 266.718 57.5007C266.768 57.499 266.818 57.5087 266.863 57.529Z" fill="#532E11"/>
<path d="M265.564 56.8318L266.48 57.3298C266.554 57.3298 266.543 57.4393 266.48 57.4891L265.607 57.9572C265.561 57.9791 265.51 57.9905 265.458 57.9905C265.406 57.9905 265.355 57.9791 265.309 57.9572L264.394 57.4592C264.319 57.4592 264.33 57.3397 264.394 57.2999L265.266 56.8218C265.313 56.8014 265.365 56.7917 265.417 56.7935C265.468 56.7952 265.519 56.8083 265.564 56.8318Z" fill="#532E11"/>
<path d="M264.266 56.1246L265.181 56.6226C265.256 56.6226 265.245 56.7322 265.181 56.782L264.309 57.26C264.262 57.2798 264.211 57.2901 264.16 57.2901C264.108 57.2901 264.058 57.2798 264.011 57.26L263.095 56.762C263.01 56.762 263.021 56.6525 263.095 56.6027L263.968 56.1246C264.015 56.1048 264.066 56.0946 264.117 56.0946C264.168 56.0946 264.219 56.1048 264.266 56.1246Z" fill="#532E11"/>
<path d="M262.957 55.4274L263.883 55.9254C263.957 55.9254 263.947 56.035 263.883 56.0848L263 56.5529C262.955 56.5747 262.906 56.5861 262.856 56.5861C262.806 56.5861 262.757 56.5747 262.712 56.5529L261.786 56.0549C261.712 56.0549 261.723 55.9453 261.786 55.9055L262.67 55.4274C262.714 55.4056 262.763 55.3942 262.813 55.3942C262.863 55.3942 262.913 55.4056 262.957 55.4274Z" fill="#532E11"/>
<path d="M260.052 53.8537L262.585 55.2182C262.659 55.2182 262.648 55.3278 262.585 55.3776L261.701 55.8557C261.654 55.8755 261.604 55.8857 261.552 55.8857C261.501 55.8857 261.45 55.8755 261.403 55.8557L258.881 54.4812C258.807 54.4812 258.807 54.3716 258.881 54.3318L259.754 53.8537C259.8 53.8318 259.851 53.8204 259.903 53.8204C259.954 53.8204 260.006 53.8318 260.052 53.8537Z" fill="#532E11"/>
<path d="M277.271 63.1564L278.527 63.8336C278.601 63.8336 278.59 63.9532 278.527 63.993L277.654 64.4711C277.608 64.493 277.557 64.5044 277.505 64.5044C277.453 64.5044 277.402 64.493 277.356 64.4711L276.1 63.7938C276.026 63.7938 276.036 63.6842 276.1 63.6344L276.983 63.1564C277.028 63.1368 277.077 63.1266 277.127 63.1266C277.177 63.1266 277.226 63.1368 277.271 63.1564Z" fill="#532E11"/>
<path d="M254.954 56.6027L273.429 66.5627C273.503 66.5627 273.503 66.6722 273.429 66.722L272.993 66.9511C272.948 66.9729 272.899 66.9843 272.849 66.9843C272.799 66.9843 272.75 66.9729 272.705 66.9511L254.22 56.9911C254.145 56.9911 254.156 56.8816 254.22 56.8318L254.656 56.5927C254.704 56.5745 254.755 56.5659 254.806 56.5676C254.858 56.5694 254.908 56.5813 254.954 56.6027Z" fill="#532E11"/>
<path d="M276.579 57.0509L276.451 57.1106L273.259 58.8437L267.586 55.776L267.469 55.7063L270.779 53.9234L276.579 57.0509Z" fill="#BFBFBF"/>
<path d="M276.451 57.1106L273.259 58.8437L267.586 55.776L270.779 54.0529L276.451 57.1106Z" fill="#E5E5E5"/>
<path d="M285.678 61.0747V61.3436C285.68 61.5347 285.627 61.7229 285.527 61.889C285.426 62.0551 285.28 62.1934 285.103 62.2898L273.844 68.3654C273.668 68.4627 273.468 68.514 273.264 68.514C273.06 68.514 272.86 68.4627 272.684 68.3654L252.315 57.4094C252.129 57.3094 251.977 57.1637 251.873 56.988C251.77 56.8124 251.72 56.6137 251.73 56.4134V56.1445L273.259 67.7778L285.678 61.0747Z" fill="#E5E5E5"/>
<path d="M272.939 67.9471C272.747 68.0181 272.54 68.0477 272.334 68.0339C272.128 68.0201 271.927 67.9633 271.747 67.8674L251.527 56.9114C251.351 56.8164 251.199 56.6857 251.083 56.529C250.967 56.3722 250.89 56.1933 250.857 56.0051L248.633 43.6148C248.627 43.5452 248.627 43.4753 248.633 43.4057C248.632 43.2346 248.669 43.0652 248.74 42.9077C248.811 42.7502 248.916 42.6079 249.048 42.4894L270.119 53.8736C270.246 53.9466 270.355 54.0437 270.44 54.1587C270.524 54.2736 270.582 54.4039 270.609 54.541L272.939 67.9471Z" fill="#F4F4F4"/>
<path d="M273.259 67.7878L273.12 67.8674L272.939 67.9471L270.534 54.541C270.507 54.4039 270.45 54.2736 270.365 54.1587C270.281 54.0437 270.172 53.9466 270.045 53.8736L249.026 42.4894C249.104 42.407 249.198 42.3393 249.303 42.2902L270.417 53.6944C270.546 53.7663 270.657 53.8629 270.744 53.9779C270.83 54.093 270.889 54.2237 270.917 54.3617L273.259 67.7878Z" fill="#E5E5E5"/>
<path d="M288.573 14.7707C288.573 14.7707 288.307 19.4818 288.424 19.9001C288.541 20.3184 290.733 21.7028 291.372 22.2008C292.01 22.6988 287.892 26.5036 285.891 27.3601C283.89 28.2167 277.526 25.9558 277.377 23.0275C277.228 20.0993 278.441 17.6591 279.442 17.5296C280.442 17.4001 288.573 14.7707 288.573 14.7707Z" fill="#DEA77D"/>
<path d="M289.126 20.7168C289.126 20.7168 285.476 25.8163 280.378 26.2944C278.771 24.8104 278.622 19.5316 280.847 17.8483C280.847 17.8483 278.803 16.2946 277.398 16.6033C275.877 17.4448 274.74 18.7816 274.206 20.3582C272.9 23.8777 272.291 27.5903 272.407 31.3142C272.492 36.2942 272.407 48.9534 272.407 48.9534C272.706 50.4469 273.34 51.8643 274.266 53.1123C275.193 54.3603 276.391 55.4106 277.782 56.1943C281.466 58.1504 285.81 58.7134 289.924 57.768C292.51 57.2003 293.468 55.8557 294.362 54.0928C294.128 50.5968 292.649 43.3758 293.298 38.9635C293.947 34.5512 294.915 31.2644 295.171 27.7087C295.426 24.153 294.671 24.2128 292.755 22.9379C291.604 22.1163 290.392 21.374 289.126 20.7168Z" fill="#F4F4F4"/>
<path d="M283.273 61.3436C284.189 60.7727 285.146 60.2602 286.136 59.8098C287.059 59.5342 287.898 59.0562 288.583 58.4154C289.477 57.5987 290.946 54.4912 291.999 51.4434C293.048 48.0255 293.462 44.4646 293.223 40.9157C292.787 36.6628 291.148 30.7166 290.733 28.2764C290.318 25.8362 291.159 24.8502 292.383 23.9538C293.809 22.898 295.777 23.3662 296.831 26.7924C298.188 31.5327 298.973 36.4002 299.172 41.3041C299.216 44.947 298.615 48.5715 297.395 52.031C296.31 54.9946 294.845 57.824 293.032 60.4572C292.532 61.244 292.361 61.9512 291.595 63.5647C290.859 65.186 289.712 66.615 288.253 67.728C286.976 68.5845 286.37 68.724 286.061 68.5447C285.753 68.3654 285.763 67.9571 286.306 67.5487C287.212 66.8821 287.983 66.0692 288.583 65.1484C288.583 65.1484 287.466 66.2041 286.732 66.7818C286.085 67.2929 285.37 67.7216 284.603 68.0567C283.858 68.3654 282.815 67.7678 283.347 67.2997C283.88 66.8316 284.412 66.5925 285.476 65.726C286.048 65.2714 286.56 64.753 286.998 64.1822C286.249 64.7219 285.455 65.2048 284.624 65.6264C283.983 65.9897 283.246 66.1794 282.496 66.1742C282.102 66.1742 281.623 65.6364 282.368 65.1782C283.392 64.6591 284.346 64.0272 285.21 63.2958C286.029 62.5388 286.487 61.8914 286.274 61.8815C286.061 61.8715 285.593 62.3396 284.635 62.6285C283.677 62.9173 282.645 62.6285 282.507 62.1603C282.368 61.6922 282.379 61.752 283.273 61.3436Z" fill="#DEA77D"/>
<path d="M277.164 7.73892C277.771 4.0836 280.591 1.31472 284.614 1.52388C286.236 1.60112 287.792 2.15375 289.06 3.10364C290.329 4.05353 291.246 5.35261 291.683 6.81716C292.119 8.28172 292.053 9.83765 291.493 11.2649C290.933 12.6922 289.908 13.9186 288.562 14.7707C288.419 15.326 288.209 15.8641 287.934 16.3742C286.519 17.928 282.209 18.924 280.953 18.7248C280.218 18.6624 279.521 18.3943 278.951 17.9554C278.382 17.5166 277.967 16.9274 277.76 16.2647C276.419 13.3962 276.834 9.55164 277.164 7.73892Z" fill="#DEA77D"/>
<path d="M288.573 14.7707L288.2 11.5735C288.2 11.5735 290.989 4.82064 284.401 6.11544C280.059 6.972 278.963 7.35048 277.643 4.62144C276.324 1.8924 280.953 -0.567721 286.519 0.119519C288.426 0.30411 290.19 1.15321 291.459 2.49827C292.729 3.84333 293.412 5.586 293.372 7.38036C293.234 9.39228 292.659 13.456 288.573 14.7707Z" fill="#532E11"/>
<path d="M299.843 33.0971C299.843 33.0971 296.246 36.4436 292 35.4775C291.393 35.0891 289.924 27.2705 289.924 27.2705C289.924 27.2705 289.924 22.9379 293.479 23.0474C297.033 23.157 299.843 33.0971 299.843 33.0971Z" fill="#EDEDED"/>
<path d="M272.705 26.6032C271.699 26.5693 270.746 26.1732 270.045 25.4976C270.194 23.7446 272.588 17.0914 277.398 16.6033C276.09 17.4622 275.053 18.6356 274.397 19.9997C273.649 22.1558 273.083 24.3638 272.705 26.6032Z" fill="#EDEDED"/>
<path d="M488.901 309.905L400.017 261.878C394.43 258.89 389.907 250.773 389.907 243.811V112.926C389.907 105.954 394.43 102.767 400.017 105.775L488.901 153.812C494.477 156.8 499 164.918 499 171.88V302.784C499 309.756 494.477 312.923 488.901 309.905Z" fill="#211B49"/>
<path d="M492.455 311.818L495.499 310.413L493.445 306.639L492.455 311.818Z" fill="#211B49"/>
<path d="M391.568 106.144C392.463 105.646 393.403 105.223 394.377 104.879L396.633 109.052L391.568 106.144Z" fill="#211B49"/>
<path d="M486.57 311.001L397.676 262.944C392.1 259.956 387.577 251.839 387.577 244.877V114.022C387.577 107.05 392.1 103.853 397.676 106.871L486.57 154.908C492.146 157.896 496.669 166.003 496.669 172.965V303.85C496.669 310.812 492.146 314.019 486.57 311.001Z" fill="#162A35"/>
<path d="M413.841 134.161L397.676 125.426V119.968L413.841 128.703V134.161Z" fill="#EB6D07"/>
<path d="M485.559 172.916L416.875 135.795V130.347L485.559 167.457V172.916Z" fill="#EB6D07"/>
<path d="M413.841 151.631L397.676 142.896V137.438L413.841 146.173V151.631Z" fill="#EB6D07"/>
<path d="M462.327 177.826L416.875 153.264V147.806L462.327 172.368V177.826Z" fill="#959595"/>
<path d="M413.841 160.356L397.676 151.631V146.173L413.841 154.898V160.356Z" fill="#EB6D07"/>
<path d="M473.438 192.567L416.875 161.999V156.541L473.438 187.109V192.567Z" fill="#FFE0C8"/>
<path d="M413.841 169.091L397.676 160.356V154.898L413.841 163.633V169.091Z" fill="#EB6D07"/>
<path d="M456.272 192.019L416.875 170.734V165.276L456.272 186.561V192.019Z" fill="#EB6D07"/>
<path d="M413.841 142.896L397.676 134.161V128.703L413.841 137.438V142.896Z" fill="#EB6D07"/>
<path d="M451.217 163.095L416.875 144.53V139.071L451.217 157.627V163.095Z" fill="#00598A"/>
<path d="M413.841 177.826L397.676 169.091V163.633L413.841 172.368V177.826Z" fill="#EB6D07"/>
<path d="M437.073 190.375L416.875 179.459V174.001L437.073 184.917V190.375Z" fill="#EB6D07"/>
<path d="M413.841 195.286L397.676 186.561V181.103L413.841 189.838V195.286Z" fill="#EB6D07"/>
<path d="M480.515 231.311L416.875 196.929V191.471L480.515 225.853V231.311Z" fill="#959595"/>
<path d="M413.841 204.021L397.676 195.286V189.828L413.841 198.563V204.021Z" fill="#EB6D07"/>
<path d="M436.062 216.032L416.875 205.664V200.206L436.062 210.574V216.032Z" fill="#FFE0C8"/>
<path d="M413.841 212.756L397.676 204.021V198.563L413.841 207.297V212.756Z" fill="#EB6D07"/>
<path d="M473.438 244.956L416.875 214.389V208.941L473.438 239.498V244.956Z" fill="#EB6D07"/>
<path d="M413.841 186.561L397.676 177.826V172.368L413.841 181.103V186.561Z" fill="#EB6D07"/>
<path d="M470.405 217.128L416.875 188.194V182.736L470.405 211.67V217.128Z" fill="#00598A"/>
<path d="M413.841 221.49L397.676 212.756V207.297L413.841 216.032V221.49Z" fill="#EB6D07"/>
<path d="M423.941 226.949L416.875 223.124V217.666L423.941 221.49V226.949Z" fill="#EB6D07"/>
<path d="M413.841 238.95L397.676 230.225V224.767L413.841 233.502V238.95Z" fill="#EB6D07"/>
<path d="M430.007 247.685L416.875 240.594V235.136L430.007 242.227V247.685Z" fill="#959595"/>
<path d="M413.841 247.685L397.676 238.95V233.492L413.841 242.227V247.685Z" fill="#EB6D07"/>
<path d="M451.217 267.884L416.875 249.329V243.871L451.217 262.426V267.884Z" fill="#FFE0C8"/>
<path d="M413.841 256.42L397.676 247.685V242.227L413.841 250.962V256.42Z" fill="#EB6D07"/>
<path d="M471.416 287.535L416.875 258.054V252.596L471.416 282.077V287.535Z" fill="#EB6D07"/>
<path d="M413.841 230.225L397.676 221.49V216.032L413.841 224.767V230.225Z" fill="#EB6D07"/>
<path d="M485.559 268.98L416.875 231.859V226.401L485.559 263.512V268.98Z" fill="#00598A"/>
<path d="M38.4395 211.092L28.7338 206.431L8.39669 217.387C3.78864 219.877 0.0426025 217.865 0.0426025 212.875V192.138C0.199829 189.425 1.03818 186.784 2.48965 184.431C3.94112 182.078 5.96485 180.077 8.39669 178.593L129.515 113.126C134.123 110.636 137.869 112.658 137.869 117.638V138.444C137.712 141.157 136.874 143.798 135.422 146.151C133.971 148.505 131.947 150.505 129.515 151.99L48.0813 195.953" fill="#B1B4C4"/>
<path d="M134.836 112.319L139.412 114.052L135.539 117.777L132.793 113.664L134.836 112.319Z" fill="#B1B4C4"/>
<path d="M38.4395 211.092L43.2604 212.905L43.271 209.021L39.0035 208.224L38.4395 211.092Z" fill="#B1B4C4"/>
<path d="M8.09872 220.116C8.27963 220.475 2.87342 218.403 2.68186 218.124C2.4903 217.845 9.23743 214.14 9.23743 214.14L8.09872 220.116Z" fill="#B1B4C4"/>
<path d="M52.9022 197.756L134.336 153.762C136.766 152.276 138.788 150.276 140.24 147.922C141.691 145.569 142.53 142.93 142.69 140.217V119.45C142.69 114.47 138.944 112.478 134.336 114.928L13.175 180.396C10.7443 181.881 8.72152 183.882 7.2702 186.235C5.81888 188.588 4.97982 191.228 4.82092 193.941V214.708C4.82092 219.688 8.56696 221.68 13.175 219.22L33.5122 208.264L43.2604 212.935L52.9022 197.756Z" fill="#E9EAF2"/>
<path d="M131.824 132.996L15.6865 195.744V188.523L131.824 125.765V132.996Z" fill="#EB6D07"/>
<path d="M91.7247 167.308L15.6865 208.393V201.162L91.7247 160.077V167.308Z" fill="#EB6D07"/>
<path d="M244.125 82.875L241 81.0708C241 79.4395 239.879 77.466 238.5 76.6699C237.121 75.8738 236 76.5528 236 78.184L232.875 76.3798C231.84 75.7822 231 76.2908 231 77.5154L231 93.7819C231 95.0065 231.84 96.4849 232.875 97.0825L244.125 103.578C245.16 104.175 246 103.667 246 102.442L246 86.1757C246 84.9511 245.16 83.4727 244.125 82.875ZM238.5 78.5183C239.02 78.8183 239.438 79.5541 239.438 80.1687C239.438 80.7833 239.02 81.0364 238.5 80.7365C237.98 80.4365 237.563 79.7008 237.563 79.0861C237.563 78.4715 237.98 78.2184 238.5 78.5183ZM242.25 94.7317C242.25 94.935 242.109 95.0202 241.937 94.9209L239.75 93.658L239.75 96.2458C239.75 96.4492 239.609 96.5343 239.437 96.4351L237.562 95.3526C237.391 95.2533 237.25 95.0058 237.25 94.8025L237.25 92.2146L235.062 90.9517C234.891 90.8524 234.75 90.6049 234.75 90.4016L234.75 88.1834C234.75 87.9801 234.891 87.8949 235.062 87.9941L237.25 89.2571L237.25 86.6692C237.25 86.4659 237.391 86.3807 237.562 86.48L239.438 87.5625C239.609 87.6617 239.75 87.9093 239.75 88.1126L239.75 90.7005L241.937 91.9634C242.109 92.0626 242.25 92.3102 242.25 92.5135L242.25 94.7317ZM242.25 85.8591C242.25 86.0624 242.109 86.1476 241.938 86.0484L235.062 82.0791C234.891 81.9798 234.75 81.7323 234.75 81.529L234.75 80.7896C234.75 80.5862 234.891 80.5011 235.062 80.6003L241.938 84.5696C242.109 84.6688 242.25 84.9164 242.25 85.1197L242.25 85.8591Z" fill="#EB6D07"/>
<path d="M237.5 207.545C240.498 209.276 242.929 207.98 242.929 204.649C242.929 201.318 240.498 197.216 237.5 195.485C234.502 193.754 232.071 195.05 232.071 198.381C232.071 201.711 234.502 205.814 237.5 207.545ZM232.411 212.521C232.411 213.148 232.865 213.914 233.429 214.24C233.993 214.565 234.446 214.323 234.446 213.697C234.446 213.07 233.993 212.304 233.429 211.978C232.865 211.653 232.411 211.895 232.411 212.521ZM241.571 211.432L241.571 213.74C243.119 214.982 244.286 217.182 244.286 219L244.286 220.965C244.286 221.323 244.057 221.502 243.739 221.389L242.373 220.902C242.191 220.839 242.012 220.604 241.974 220.375L241.843 219.559C241.805 219.335 241.923 219.201 242.11 219.271L242.929 219.56L242.929 218.217C242.929 215.258 238.857 212.799 238.857 215.956L238.857 217.214L239.676 217.87C239.858 218.018 239.977 218.284 239.943 218.467L239.811 219.131C239.773 219.311 239.595 219.34 239.413 219.197L238.09 218.236C237.754 217.99 237.504 217.53 237.504 217.149L237.504 215.085C237.504 213.267 238.671 212.418 240.219 212.959L240.219 210.829C240.125 210.809 240.032 210.774 239.939 210.757C239.175 210.613 238.357 210.306 237.504 209.814C236.652 209.321 235.833 208.684 235.07 207.946C234.756 207.643 234.438 207.384 234.111 207.148L234.111 210.992C235.091 211.883 235.808 213.295 235.808 214.487C235.808 215.943 234.743 216.511 233.433 215.754C232.122 214.998 231.058 213.201 231.058 211.745C231.058 210.553 231.775 209.968 232.754 210.209L232.754 206.421C230.057 205.368 228 206.762 228 209.899L228 212.01C228 213.174 228.852 214.613 229.9 215.217L245.1 223.993C246.148 224.598 247 224.143 247 222.98L247 220.869C247 217.477 244.591 213.34 241.571 211.432Z" fill="#EB6D07"/>
<path d="M238.5 139.062C232.701 135.714 228 137.365 228 142.75C228 145.073 228.878 147.71 230.338 150.228C229.824 152.289 228.111 153.407 228.09 153.419C228.046 153.446 228.017 153.496 228.005 153.562C227.994 153.627 228.002 153.706 228.027 153.788C228.052 153.87 228.094 153.952 228.148 154.023C228.201 154.094 228.264 154.152 228.328 154.189C231.046 155.758 233.086 155.447 234.095 155.11C235.503 156.526 236.996 157.696 238.5 158.562C244.299 161.91 249 160.259 249 154.874C249 149.489 244.299 142.41 238.5 139.062ZM242.438 152.21C242.438 152.31 242.403 152.385 242.341 152.42C242.28 152.455 242.196 152.446 242.109 152.396L239.813 151.07L239.813 153.695C239.813 153.794 239.778 153.869 239.716 153.904C239.655 153.939 239.571 153.93 239.484 153.88L237.516 152.743C237.429 152.693 237.345 152.605 237.284 152.5C237.222 152.394 237.187 152.278 237.187 152.179L237.187 149.554L234.891 148.228C234.804 148.178 234.72 148.09 234.659 147.984C234.597 147.878 234.562 147.763 234.562 147.664L234.562 145.414C234.562 145.314 234.597 145.239 234.659 145.204C234.72 145.169 234.804 145.178 234.891 145.228L237.187 146.554L237.187 143.929C237.187 143.83 237.222 143.754 237.284 143.72C237.345 143.685 237.429 143.693 237.516 143.744L239.484 144.88C239.571 144.931 239.655 145.018 239.716 145.124C239.778 145.23 239.813 145.345 239.813 145.445L239.813 148.07L242.109 149.396C242.196 149.446 242.28 149.534 242.341 149.64C242.403 149.745 242.438 149.861 242.438 149.96L242.438 152.21Z" fill="#EB6D07"/>
<path opacity="0.4" d="M290.05 461.245C302.725 461.245 313 456.17 313 449.909C313 443.647 302.725 438.572 290.05 438.572C277.375 438.572 267.1 443.647 267.1 449.909C267.1 456.17 277.375 461.245 290.05 461.245Z" fill="#C3C6D1"/>
<path d="M309.028 363.535C309.289 365.5 312.023 373.965 311.437 376.862C310.851 379.76 301.504 384.613 301.504 384.613L300.214 379.648L305.388 375.332L303.985 367.111L309.028 363.535Z" fill="#FFCEA9"/>
<path d="M301.8 355.196C302.707 354.838 303.735 354.777 304.691 355.024C305.647 355.272 306.463 355.811 306.986 356.539C308.365 358.489 309.792 365.176 309.945 366.316C309.945 366.316 308.016 368.595 305.121 368.215L301.8 355.196Z" fill="#EDEDED"/>
<path d="M291.127 449.564C289.096 450.046 286.924 449.822 285.084 448.941C283.627 448.977 275.719 446.079 274.647 448.51C273.7 450.643 277.128 452.619 278.957 452.994C282.953 453.824 285.906 455.526 287.511 455.815C288.695 456.033 290.251 456.175 291.204 455.369C292.341 454.407 292.24 450.836 291.127 449.564Z" fill="black"/>
<path d="M287.505 455.228C285.9 454.939 282.947 453.232 278.951 452.406C277.418 452.087 274.778 450.653 274.511 448.941C274.156 450.901 277.246 452.644 278.951 452.994C282.947 453.824 285.9 455.526 287.505 455.815C288.689 456.033 290.245 456.175 291.198 455.369C291.446 455.136 291.626 454.857 291.725 454.554C291.131 454.939 290.44 455.2 289.708 455.317C288.975 455.434 288.221 455.403 287.505 455.228V455.228Z" fill="#704200"/>
<path d="M303.949 444.64C301.914 445.119 299.741 444.893 297.899 444.012C296.443 444.048 288.541 441.155 287.463 443.587C286.522 445.714 289.944 447.69 291.779 448.07C295.768 448.895 298.722 450.603 300.326 450.891C301.51 451.104 303.073 451.246 304.026 450.441C305.169 449.478 305.068 445.907 303.949 444.64Z" fill="black"/>
<path d="M300.326 450.304C298.722 450.015 295.768 448.308 291.779 447.482C290.245 447.163 287.599 445.729 287.333 444.017C286.978 445.978 290.068 447.72 291.779 448.07C295.768 448.895 298.722 450.603 300.326 450.891C301.51 451.104 303.073 451.246 304.026 450.441C304.271 450.207 304.45 449.928 304.547 449.625C303.953 450.011 303.263 450.273 302.53 450.391C301.798 450.509 301.043 450.479 300.326 450.304V450.304Z" fill="#704200"/>
<path d="M304.109 426.252C303.767 423.739 303.155 421.258 302.28 418.841C302.28 418.841 302.824 412.448 303.097 406.385C303.41 399.501 306.199 393.447 303.996 387.956L279.164 392.677C279.164 392.677 280.662 420.108 280.993 423.431C281.186 426.016 281.564 428.589 282.124 431.135C283.26 436.459 285.084 449.129 285.084 449.129C287.706 450.43 291.151 449.711 291.151 449.711C291.151 449.711 290.962 433.688 290.79 429.854C290.583 425.168 290.417 425.523 290.417 425.523L291.24 413.872L291.773 408.067C291.773 408.067 292.459 412.327 292.909 416.136C293.294 419.454 294.235 422.453 295.277 428.633C296.189 433.992 297.645 444.762 297.645 444.762C300.267 446.064 303.831 444.98 303.831 444.98C303.831 444.98 304.813 430.902 304.109 426.252Z" fill="#EB6D07"/>
<path d="M300.474 355.313C298.586 355.389 297.183 355.82 296.923 355.313C296.719 354.477 296.574 353.631 296.491 352.78C296.71 352.309 296.893 351.802 296.893 351.802C299.261 350.556 300.019 348.358 300.332 345.805C300.859 341.438 298.107 337.614 292.998 337.158C288.203 336.727 284.669 339.615 283.728 343.576C283.225 345.536 282.213 349.229 283.574 352.451C284.338 354.249 285.35 355.678 286.309 355.956C287.258 355.932 288.205 355.861 289.144 355.744V355.744C289.144 355.744 289.399 356.954 289.577 357.734C289.754 358.514 289.683 358.925 287.866 359.882C286.048 360.84 290.607 362.8 293.584 362.608C296.562 362.415 299.9 360.875 300.818 359.234C301.871 357.42 301.783 355.257 300.474 355.313Z" fill="#FFCEA9"/>
<path d="M297.751 355.576C298.272 356.696 296.94 358.059 293.395 359.016C289.849 359.973 289.523 358.742 289.523 358.742C289.523 358.742 284.326 360.769 282.627 361.782C280.496 363.058 279.555 366.741 279.265 372.967C278.933 380.17 278.904 390.859 279.188 392.723C279.188 392.723 283.166 396.117 288.262 395.762C293.359 395.407 301.925 391.497 304.026 388.503C303.973 382.186 303.109 381.158 304.304 377.521C307.039 369.193 308.478 365.784 307.152 360.247C306.051 355.688 304.517 355.115 302.416 355.181C300.854 355.242 299.297 355.374 297.751 355.576V355.576Z" fill="#F4F4F4"/>
<path d="M271.261 380.104C275.441 381.006 276.423 378.752 276.974 376.882C278.3 372.359 279.016 368.271 280.011 365.708C281.194 362.668 282.378 362.202 284.119 361.61C286.137 360.916 287.872 362.38 287.203 366.229C286.41 370.789 285.362 373.99 283.373 379.4C282.852 380.808 281.686 383.311 279.939 384.521C277.785 386.016 274.535 385.95 269.616 384.901C267.52 384.456 265.224 383.382 261.257 381.801C260.192 381.376 259.369 381.097 257.327 380.282C255.285 379.466 253.154 378.108 252.082 376.781C251.011 375.454 250.869 374.831 251.088 374.527C251.307 374.223 251.851 374.233 252.42 374.79C253.246 375.732 254.265 376.539 255.427 377.171C255.427 377.171 254.107 376.006 253.39 375.246C252.751 374.574 252.219 373.831 251.81 373.038C251.431 372.263 252.212 371.214 252.804 371.761C253.396 372.308 253.675 372.876 254.758 373.985C255.327 374.576 255.977 375.106 256.693 375.565C256.027 374.788 255.433 373.966 254.918 373.109C254.456 372.438 254.23 371.668 254.266 370.89C254.296 370.485 254.965 370.003 255.587 370.768C256.208 371.533 256.522 372.536 257.836 373.706C258.789 374.552 259.612 375.039 259.612 374.806C259.612 374.573 259.02 374.107 258.694 373.119C258.369 372.131 258.694 371.092 259.334 370.971C259.973 370.849 259.849 370.89 260.358 371.812C260.867 372.734 261.66 373.418 262.258 374.77C262.582 375.721 263.171 376.59 263.975 377.303C265.01 378.215 267.284 379.248 271.261 380.104Z" fill="#FFCEA9"/>
<path d="M285.676 360.992C282.882 360.642 280.91 361.716 279.679 365.333C278.448 368.95 277.584 371.918 277.584 371.918C278.686 373.286 280.36 374.238 282.26 374.578C285.599 375.272 286.8 373.904 286.8 373.904C286.8 373.904 287.724 370.11 288.304 367.531C288.884 364.953 289.121 361.427 285.676 360.992Z" fill="#EDEDED"/>
<path d="M283.9 343.024C283.9 343.024 279.49 337.284 289.05 336.119C295.94 335.273 300.368 339.062 300.889 343.176C301.374 347.107 298.521 351.184 296.508 352.8C295.514 353.104 293.365 353.277 290.553 352.182C290.437 351.122 290.39 350.056 290.411 348.991C290.411 348.991 293.791 342.912 283.9 343.024Z" fill="#7F542D"/>
<path d="M306.506 368.453L279.188 390.235L277.578 432.133C277.578 432.133 285.232 435.325 293.939 433.602L295.508 417.484L297.935 432.113L297.651 432.554C301.202 431.252 304.754 429.008 307.886 425.264L306.506 368.453Z" fill="#F4F4F4"/>
<path d="M277.578 371.923L276.234 376.989C276.234 376.989 275.085 380.535 272.179 379.628C269.273 378.721 264.087 376.234 264.087 376.234L260.535 382.429L267.84 385.357C267.84 385.357 277.968 388.447 280.792 385.357C283.616 382.267 286.771 373.919 286.771 373.919L277.578 371.923Z" fill="#EDEDED"/>
<path d="M309.946 366.316L311.129 371.138C311.129 371.138 311.721 374.765 311.721 375.459C311.721 376.153 312.118 377.369 309.78 379.36C307.442 381.35 306.82 381.953 306.82 381.953L306.495 370.657L307.169 368.048L309.129 365.936L309.946 366.316Z" fill="#EDEDED"/>
<defs>
<linearGradient id="paint0_linear_449815_1077" x1="341.876" y1="288.373" x2="421.804" y2="139.774" gradientUnits="userSpaceOnUse">
<stop offset="0.21" stop-color="white" stop-opacity="0"/>
<stop offset="1" stop-color="white" stop-opacity="0.2"/>
</linearGradient>
<linearGradient id="paint1_linear_449815_1077" x1="364.785" y1="238.869" x2="343.186" y2="279.024" gradientUnits="userSpaceOnUse">
<stop stop-color="#E9EAF2" stop-opacity="0.8"/>
<stop offset="1" stop-color="#E9EAF2" stop-opacity="0"/>
</linearGradient>
</defs>
</svg>
