<svg width="116" height="29" viewBox="0 0 116 29" fill="none" xmlns="http://www.w3.org/2000/svg">
<path d="M19.5479 18.686C19.5479 20.1216 19.3029 21.4318 18.813 22.6167C18.3231 23.8016 17.6566 24.8213 16.8135 25.6758C15.9704 26.5189 14.9792 27.174 13.8398 27.6411C12.7119 28.1082 11.4985 28.3418 10.1997 28.3418C8.91227 28.3418 7.69889 28.1025 6.55957 27.624C5.43164 27.1455 4.44043 26.479 3.58594 25.6245C2.74284 24.77 2.07633 23.756 1.58643 22.5825C1.09652 21.3976 0.851562 20.0988 0.851562 18.686V2.4165H5.53418V10.9614C5.78483 10.6424 6.08675 10.3576 6.43994 10.1069C6.80452 9.85628 7.19189 9.6512 7.60205 9.4917C8.0236 9.33219 8.45654 9.21257 8.90088 9.13281C9.34521 9.04167 9.77816 8.99609 10.1997 8.99609C11.4985 8.99609 12.7119 9.24105 13.8398 9.73096C14.9792 10.2095 15.9704 10.8817 16.8135 11.7476C17.6566 12.6134 18.3231 13.6388 18.813 14.8237C19.3029 15.9972 19.5479 17.2847 19.5479 18.686ZM14.8481 18.686C14.8481 17.9797 14.7228 17.3245 14.4722 16.7207C14.2329 16.1055 13.9025 15.5757 13.481 15.1313C13.0594 14.687 12.5638 14.3395 11.9941 14.0889C11.4359 13.8382 10.8377 13.7129 10.1997 13.7129C9.56169 13.7129 8.95785 13.8553 8.38818 14.1401C7.82992 14.4136 7.34001 14.7839 6.91846 15.251C6.49691 15.7067 6.1665 16.2365 5.92725 16.8403C5.68799 17.4328 5.56836 18.048 5.56836 18.686C5.56836 19.3924 5.68799 20.0475 5.92725 20.6514C6.1665 21.2552 6.49691 21.7793 6.91846 22.2236C7.34001 22.668 7.82992 23.0212 8.38818 23.2832C8.95785 23.5339 9.56169 23.6592 10.1997 23.6592C10.8377 23.6592 11.4359 23.5339 11.9941 23.2832C12.5638 23.0212 13.0594 22.668 13.481 22.2236C13.9025 21.7793 14.2329 21.2552 14.4722 20.6514C14.7228 20.0475 14.8481 19.3924 14.8481 18.686ZM27.6484 4.72363C27.6484 5.15658 27.563 5.56104 27.3921 5.93701C27.2326 6.31299 27.0104 6.64339 26.7256 6.92822C26.4408 7.20166 26.1047 7.42383 25.7173 7.59473C25.3413 7.75423 24.9368 7.83398 24.5039 7.83398C24.071 7.83398 23.6608 7.75423 23.2734 7.59473C22.8975 7.42383 22.5671 7.20166 22.2822 6.92822C22.0088 6.64339 21.7866 6.31299 21.6157 5.93701C21.4562 5.56104 21.3765 5.15658 21.3765 4.72363C21.3765 4.30208 21.4562 3.90332 21.6157 3.52734C21.7866 3.13997 22.0088 2.80957 22.2822 2.53613C22.5671 2.2513 22.8975 2.02913 23.2734 1.86963C23.6608 1.69873 24.071 1.61328 24.5039 1.61328C24.9368 1.61328 25.3413 1.69873 25.7173 1.86963C26.1047 2.02913 26.4408 2.2513 26.7256 2.53613C27.0104 2.80957 27.2326 3.13997 27.3921 3.52734C27.563 3.90332 27.6484 4.30208 27.6484 4.72363ZM26.8452 28H22.1455V9.69678H26.8452V28ZM48.105 18.686C48.105 20.0532 47.86 21.3293 47.3701 22.5142C46.8802 23.6877 46.2137 24.7074 45.3706 25.5732C44.5275 26.4277 43.5363 27.1056 42.397 27.6069C41.269 28.0968 40.0557 28.3418 38.7568 28.3418C37.4694 28.3418 36.256 28.0968 35.1167 27.6069C33.9888 27.1056 32.9976 26.4277 32.1431 25.5732C31.3 24.7074 30.6335 23.6877 30.1436 22.5142C29.6536 21.3293 29.4087 20.0532 29.4087 18.686C29.4087 17.2961 29.6536 16.0086 30.1436 14.8237C30.6335 13.6388 31.3 12.6191 32.1431 11.7646C32.9976 10.8988 33.9888 10.2209 35.1167 9.73096C36.256 9.24105 37.4694 8.99609 38.7568 8.99609C40.0557 8.99609 41.269 9.22965 42.397 9.69678C43.5363 10.1525 44.5275 10.8076 45.3706 11.6621C46.2137 12.5052 46.8802 13.5249 47.3701 14.7212C47.86 15.9061 48.105 17.2277 48.105 18.686ZM43.4053 18.686C43.4053 17.9341 43.2799 17.2562 43.0293 16.6523C42.79 16.0371 42.4596 15.513 42.0381 15.0801C41.6165 14.6357 41.1209 14.2996 40.5513 14.0718C39.993 13.8325 39.3949 13.7129 38.7568 13.7129C38.1188 13.7129 37.515 13.8325 36.9453 14.0718C36.387 14.2996 35.8971 14.6357 35.4756 15.0801C35.0654 15.513 34.7407 16.0371 34.5015 16.6523C34.2622 17.2562 34.1426 17.9341 34.1426 18.686C34.1426 19.3924 34.2622 20.0475 34.5015 20.6514C34.7407 21.2552 35.0654 21.7793 35.4756 22.2236C35.8971 22.668 36.387 23.0212 36.9453 23.2832C37.515 23.5339 38.1188 23.6592 38.7568 23.6592C39.3949 23.6592 39.993 23.5396 40.5513 23.3003C41.1209 23.061 41.6165 22.7249 42.0381 22.292C42.4596 21.859 42.79 21.335 43.0293 20.7197C43.2799 20.1045 43.4053 19.4266 43.4053 18.686ZM60.7344 28H50.0703V23.3516H60.7344C61.0534 23.3516 61.3268 23.2376 61.5547 23.0098C61.7826 22.7819 61.8965 22.5085 61.8965 22.1895C61.8965 21.859 61.7826 21.6426 61.5547 21.54C61.3268 21.4375 61.0534 21.3862 60.7344 21.3862H55.8809C55.0719 21.3862 54.3143 21.2324 53.6079 20.9248C52.9015 20.6172 52.2863 20.2013 51.7622 19.6772C51.2381 19.1418 50.8223 18.5208 50.5146 17.8145C50.2184 17.1081 50.0703 16.3504 50.0703 15.5415C50.0703 14.7326 50.2184 13.9749 50.5146 13.2686C50.8223 12.5622 51.2381 11.9469 51.7622 11.4229C52.2863 10.8988 52.9015 10.4886 53.6079 10.1924C54.3143 9.88477 55.0719 9.73096 55.8809 9.73096H65.3315V14.3794H55.8809C55.5618 14.3794 55.2884 14.4933 55.0605 14.7212C54.8327 14.9491 54.7188 15.2225 54.7188 15.5415C54.7188 15.8719 54.8327 16.1567 55.0605 16.396C55.2884 16.6239 55.5618 16.7378 55.8809 16.7378H60.7344C61.5319 16.7378 62.2839 16.8745 62.9902 17.1479C63.6966 17.41 64.3118 17.7803 64.8359 18.2588C65.36 18.7373 65.7759 19.3127 66.0835 19.9849C66.3911 20.6571 66.5449 21.3919 66.5449 22.1895C66.5449 22.9984 66.3911 23.756 66.0835 24.4624C65.7759 25.1574 65.36 25.7726 64.8359 26.3081C64.3118 26.8322 63.6966 27.248 62.9902 27.5557C62.2839 27.8519 61.5319 28 60.7344 28ZM86.728 18.686C86.728 20.0532 86.4831 21.3293 85.9932 22.5142C85.5033 23.6877 84.8368 24.7074 83.9937 25.5732C83.1506 26.4277 82.1593 27.1056 81.02 27.6069C79.8921 28.0968 78.6787 28.3418 77.3799 28.3418C76.0924 28.3418 74.8791 28.0968 73.7397 27.6069C72.6118 27.1056 71.6206 26.4277 70.7661 25.5732C69.923 24.7074 69.2565 23.6877 68.7666 22.5142C68.2767 21.3293 68.0317 20.0532 68.0317 18.686C68.0317 17.2961 68.2767 16.0086 68.7666 14.8237C69.2565 13.6388 69.923 12.6191 70.7661 11.7646C71.6206 10.8988 72.6118 10.2209 73.7397 9.73096C74.8791 9.24105 76.0924 8.99609 77.3799 8.99609C78.6787 8.99609 79.8921 9.22965 81.02 9.69678C82.1593 10.1525 83.1506 10.8076 83.9937 11.6621C84.8368 12.5052 85.5033 13.5249 85.9932 14.7212C86.4831 15.9061 86.728 17.2277 86.728 18.686ZM82.0283 18.686C82.0283 17.9341 81.903 17.2562 81.6523 16.6523C81.4131 16.0371 81.0827 15.513 80.6611 15.0801C80.2396 14.6357 79.744 14.2996 79.1743 14.0718C78.616 13.8325 78.0179 13.7129 77.3799 13.7129C76.7419 13.7129 76.138 13.8325 75.5684 14.0718C75.0101 14.2996 74.5202 14.6357 74.0986 15.0801C73.6885 15.513 73.3638 16.0371 73.1245 16.6523C72.8853 17.2562 72.7656 17.9341 72.7656 18.686C72.7656 19.3924 72.8853 20.0475 73.1245 20.6514C73.3638 21.2552 73.6885 21.7793 74.0986 22.2236C74.5202 22.668 75.0101 23.0212 75.5684 23.2832C76.138 23.5339 76.7419 23.6592 77.3799 23.6592C78.0179 23.6592 78.616 23.5396 79.1743 23.3003C79.744 23.061 80.2396 22.7249 80.6611 22.292C81.0827 21.859 81.4131 21.335 81.6523 20.7197C81.903 20.1045 82.0283 19.4266 82.0283 18.686ZM95.0337 28H90.3682V14.3452H88.0952V9.69678H90.3682V8.8252C90.3682 7.69727 90.5789 6.6377 91.0005 5.64648C91.4334 4.65527 92.0202 3.79508 92.7607 3.06592C93.5127 2.32536 94.3843 1.7443 95.3755 1.32275C96.3667 0.889811 97.4263 0.67334 98.5542 0.67334H102.058V5.32178H98.5542C98.0529 5.32178 97.5858 5.41292 97.1528 5.59521C96.7313 5.76611 96.361 6.01107 96.042 6.33008C95.7344 6.6377 95.4894 7.00798 95.3071 7.44092C95.1248 7.86247 95.0337 8.32389 95.0337 8.8252V9.69678H100.759V14.3452H95.0337V28ZM112.158 28C111.03 28 109.97 27.7892 108.979 27.3677C107.988 26.9347 107.116 26.348 106.364 25.6074C105.624 24.8555 105.037 23.9839 104.604 22.9927C104.182 22.0015 103.972 20.9419 103.972 19.814V14.3794H101.699V9.73096H103.972V2.4165H108.62V9.73096H115.695V14.3794H108.62V19.814C108.62 20.3039 108.711 20.7653 108.894 21.1982C109.076 21.6198 109.326 21.9901 109.646 22.3091C109.965 22.6281 110.34 22.8844 110.773 23.0781C111.206 23.2604 111.668 23.3516 112.158 23.3516H115.695V28H112.158Z" fill="white"/>
</svg>
