<svg width="52" height="51" viewBox="0 0 52 51" fill="none" xmlns="http://www.w3.org/2000/svg">
<ellipse cx="26" cy="25.5" rx="26" ry="25.5" fill="#EB6D07"/>
<path d="M26 26.7265C28.7949 26.7265 31.0625 24.3242 31.0625 21.3633C31.0625 18.4023 28.7949 16 26 16C23.2051 16 20.9375 18.4023 20.9375 21.3633C20.9375 24.3242 23.2051 26.7265 26 26.7265ZM30.5 27.9184H28.5629C27.7824 28.2983 26.9141 28.5143 26 28.5143C25.0859 28.5143 24.2211 28.2983 23.4371 27.9184H21.5C19.0145 27.9184 17 30.0525 17 32.6857V33.2816C17 34.2686 17.7559 35.0694 18.6875 35.0694H33.3125C34.2441 35.0694 35 34.2686 35 33.2816V32.6857C35 30.0525 32.9855 27.9184 30.5 27.9184Z" fill="white"/>
</svg>
