<svg width="1440" height="271" viewBox="0 0 1440 271" fill="none" xmlns="http://www.w3.org/2000/svg">
<g clip-path="url(#clip0_449670_499)">
<path d="M0 83.2333L34.4 65.7466C68.8 48.4032 137.6 13.4299 206.08 5.40327C274.72 -2.76673 342.88 15.8666 411.52 22.6033C480 29.1966 548.8 24.0366 617.28 26.9033C685.92 29.7699 754.08 40.6633 822.72 46.2533C891.2 51.6999 960 51.6999 1028.48 59.2966C1097.12 67.0366 1165.28 82.23 1233.92 84.2366C1302.4 86.1 1371.2 74.6333 1405.6 68.8999L1440 63.1666V272.433H1405.6C1371.2 272.433 1302.4 272.433 1233.92 272.433C1165.28 272.433 1097.12 272.433 1028.48 272.433C960 272.433 891.2 272.433 822.72 272.433C754.08 272.433 685.92 272.433 617.28 272.433C548.8 272.433 480 272.433 411.52 272.433C342.88 272.433 274.72 272.433 206.08 272.433C137.6 272.433 68.8 272.433 34.4 272.433H0V83.2333Z" fill="#F29F5C"/>
<path d="M0 110.467L34.4 110.753C68.8 110.897 137.6 111.47 206.08 100.72C274.72 89.9701 342.88 67.8967 411.52 63.4534C480 58.8667 548.8 71.7667 617.28 75.6367C685.92 79.3634 754.08 74.2034 822.72 76.7834C891.2 79.3634 960 89.97 1028.48 100.147C1097.12 110.467 1165.28 120.5 1233.92 110.467C1302.4 100.433 1371.2 70.3334 1405.6 55.2834L1440 40.2334V272.433H1405.6C1371.2 272.433 1302.4 272.433 1233.92 272.433C1165.28 272.433 1097.12 272.433 1028.48 272.433C960 272.433 891.2 272.433 822.72 272.433C754.08 272.433 685.92 272.433 617.28 272.433C548.8 272.433 480 272.433 411.52 272.433C342.88 272.433 274.72 272.433 206.08 272.433C137.6 272.433 68.8 272.433 34.4 272.433H0V110.467Z" fill="#F08F44"/>
<path d="M0 107.6L34.4 110.037C68.8 112.33 137.6 117.203 206.08 124.513C274.72 131.967 342.88 142 411.52 145.297C480 148.737 548.8 145.297 617.28 142.717C685.92 140.137 754.08 138.13 822.72 133.4C891.2 128.67 960 120.93 1028.48 126.233C1097.12 131.537 1165.28 149.597 1233.92 160.633C1302.4 171.67 1371.2 175.397 1405.6 177.403L1440 179.267V272.434H1405.6C1371.2 272.434 1302.4 272.434 1233.92 272.434C1165.28 272.434 1097.12 272.434 1028.48 272.434C960 272.434 891.2 272.434 822.72 272.434C754.08 272.434 685.92 272.434 617.28 272.434C548.8 272.434 480 272.434 411.52 272.434C342.88 272.434 274.72 272.434 206.08 272.434C137.6 272.434 68.8 272.434 34.4 272.434H0V107.6Z" fill="#EE7F2A"/>
<path d="M0 170.667L34.4 173.963C68.8 177.403 137.6 183.997 206.08 191.45C274.72 198.903 342.88 206.93 411.52 206.213C480 205.497 548.8 196.037 617.28 198.903C685.92 201.77 754.08 216.963 822.72 223.987C891.2 230.867 960 229.433 1028.48 219.4C1097.12 209.367 1165.28 190.733 1233.92 179.983C1302.4 169.233 1371.2 166.367 1405.6 164.933L1440 163.5V272.433H1405.6C1371.2 272.433 1302.4 272.433 1233.92 272.433C1165.28 272.433 1097.12 272.433 1028.48 272.433C960 272.433 891.2 272.433 822.72 272.433C754.08 272.433 685.92 272.433 617.28 272.433C548.8 272.433 480 272.433 411.52 272.433C342.88 272.433 274.72 272.433 206.08 272.433C137.6 272.433 68.8 272.433 34.4 272.433H0V170.667Z" fill="#EB6D07"/>
</g>
<defs>
<clipPath id="clip0_449670_499">
<rect width="1440" height="271" fill="white"/>
</clipPath>
</defs>
</svg>
